<?xml version="1.0" encoding="utf-8"?>
<!-- Generator: Adobe Illustrator 25.2.0, SVG Export Plug-In . SVG Version: 6.00 Build 0)  -->
<svg version="1.1" id="OBJECTS" xmlns="http://www.w3.org/2000/svg" xmlns:xlink="http://www.w3.org/1999/xlink" x="0px" y="0px"
	 viewBox="0 0 500 500" style="enable-background:new 0 0 500 500;" xml:space="preserve">
<style type="text/css">
	.st0{fill:#C10016;}
	.st1{font-family:'OpenSans-Extrabold';}
	.st2{font-size:54.0876px;}
	.st3{letter-spacing:-4;}
	.st4{fill:#000005;}
	.st5{font-family:'OpenSans';}
	.st6{font-size:18.3473px;}
	.st7{letter-spacing:2;}
	.st8{fill-rule:evenodd;clip-rule:evenodd;fill:#DC9118;}
	.st9{fill-rule:evenodd;clip-rule:evenodd;fill:#000005;}
	.st10{fill-rule:evenodd;clip-rule:evenodd;fill:#FFFFFF;}
	.st11{fill-rule:evenodd;clip-rule:evenodd;fill:#EDCBAA;}
	.st12{fill-rule:evenodd;clip-rule:evenodd;fill:#AFB0B0;}
	.st13{fill-rule:evenodd;clip-rule:evenodd;fill:#C4C4C4;}
	.st14{fill-rule:evenodd;clip-rule:evenodd;fill:#D98B58;}
	.st15{fill-rule:evenodd;clip-rule:evenodd;fill:#C10016;}
	.st16{fill-rule:evenodd;clip-rule:evenodd;fill:#000006;}
	.st17{fill-rule:evenodd;clip-rule:evenodd;fill:#000508;}
	.st18{fill-rule:evenodd;clip-rule:evenodd;fill:#020307;}
	.st19{fill-rule:evenodd;clip-rule:evenodd;fill:#121212;}
	.st20{fill-rule:evenodd;clip-rule:evenodd;fill:#171717;}
	.st21{fill-rule:evenodd;clip-rule:evenodd;fill:#000004;}
	.st22{fill-rule:evenodd;clip-rule:evenodd;fill:#000003;}
	.st23{fill-rule:evenodd;clip-rule:evenodd;fill:#242626;}
	.st24{fill-rule:evenodd;clip-rule:evenodd;fill:#20201E;}
	.st25{fill-rule:evenodd;clip-rule:evenodd;fill:#911B19;}
</style>
<g>
	<text transform="matrix(1 0 0 1 117.0609 386.4922)"><tspan x="0" y="0" class="st0 st1 st2 st3">P</tspan><tspan x="24.45" y="0" class="st0 st1 st2 st3">ranav’s Cuisine</tspan></text>
	<text transform="matrix(1 0 0 1 199.5069 407.5598)"><tspan x="0" y="0" class="st4 st5 st6 st7">F</tspan><tspan x="11.87" y="0" class="st4 st5 st6 st7">lavors of royalty.</tspan></text>
	<g>
		
			<ellipse transform="matrix(0.7071 -0.7071 0.7071 0.7071 -68.0263 240.7056)" class="st8" cx="256.54" cy="202.47" rx="118.58" ry="118.58"/>
		<g>
			<g>
				<g>
					<path class="st9" d="M228.34,77.77c-3.94-2.72-7.57-5.62-10.61-9.21c-4.78-5.66-7.58-12.01-7.07-19.61
						c0.73-10.92,10.65-20.73,21.21-20.28c3.19,0.14,4.75-0.7,6.65-3.12c4.58-5.83,11.1-8.82,18.17-10.54
						c10.19-2.48,20.23-2.2,29.91,2.23c6.96,3.18,11.99,8.26,14.67,15.51c0.36,0.96,0.61,1.42,1.85,1.03
						c13.18-4.09,27.62,4.73,30.15,18.36c1.08,5.79,0.32,11.36-2.23,16.65c-0.7,1.44-0.66,2.07,0.75,3.24
						c3.66,3.01,5.59,7.14,5.96,11.9c0.62,8.07-1.84,15-8.26,20.08c-5.97,4.73-12.66,4.42-19.43,1.85
						c-1.17-0.45-2.26-1.09-3.41-1.61c-0.38-0.17-0.81-0.75-1.23-0.11c-0.52,0.79-1.2,1.5-1.39,2.46c-0.02,0.08,0.46,0.34,0.73,0.4
						c5.87,1.3,8.88,7.86,6.43,14.29c-1.5,3.94-4.39,6.67-7.92,8.79c-2.21,1.33-4.6,2.3-7.07,3.06c-1.47,0.45-2.91,0.77-4.41,0.26
						c-0.88-0.3-1.27-0.08-1.4,0.91c-0.29,2.26-0.66,4.51-1.07,6.75c-0.15,0.84,0.1,1.12,0.91,1.35c2.07,0.58,4.09,1.35,6.17,1.93
						c1.4,0.39,2.03,1.21,2.27,2.64c0.62,3.72,1.42,7.42,2.04,11.14c0.17,1.02,0.62,1.36,1.54,1.62
						c10.68,2.97,21.33,6.03,32.03,8.94c2.28,0.62,3.8,1.8,4.87,3.85c1.83,3.52,3.16,7.24,4.55,10.93
						c3.17,8.4,5.95,16.96,10.07,24.97c0.79,1.54,1.7,3.03,2.67,4.47c0.7,1.04,1.54,1.96,2.76,2.5c4.26,1.88,6.98,4.89,6.73,9.82
						c-0.27,5.19,1.28,9.87,3.54,14.44c1.22,2.46,1.97,5.14,3.02,7.69c3.44,8.35,1.78,16.27-2.2,23.87
						c-4.26,8.12-11.08,13.75-18.82,18.38c-6.61,3.96-13.65,6.96-20.98,9.29c-1.3,0.41-2.08,1.04-2.22,2.39
						c-0.01,0.12-0.04,0.24-0.07,0.35c-1.97,7.12-2.02,7.15-9.2,8.84c-4.43,1.04-8.85,2.16-13.3,3.15
						c-4.96,1.11-0.24,15.37-2.21,17.82c-0.31,0.39-2.66-10.92-3.31-10.68c-12.55,4.45-25.25,9.31-39.33,9.31
						c-20.73,0-40.24-5.26-57.26-14.51c-0.43-0.24-0.66,3.38-1.09,3.14c-0.34-0.19-0.89-4.24-1.23-4.44
						c-5.24-3-10.23-6.38-14.93-10.11c-0.79-0.63-3.87,7.66-4.65,7.01c1.24-11.76,3.96-22.46,5.67-34.08
						c0.32-2.18,0.21-4.35-0.21-6.45c-1.2-5.94-0.17-11.7,0.96-17.49c0.34-1.76,0.65-3.53,1.05-5.74c-2.89,3.12-5.37,6.03-8.08,8.71
						c-7.49,7.4-16.12,13.18-25.65,17.64c-4.48,2.1-8.57,1.53-12.43-1.55c-7.49-5.96-13.41-13.17-17.64-21.76
						c-2.1-4.26-1.67-8.62-0.67-13.02c1.18-5.23,3.12-10.18,5.41-15c0.38-0.81,0.35-1.32-0.15-2.08c-1.83-2.75-3.45-5.61-4.1-8.92
						c-0.35-1.8-0.07-3.43,0.72-5.05c1.72-3.52,4.01-6.67,6.27-9.85c0.38-0.53,0.76-1.06,1.21-1.7c-4.59-0.79-9.06-1.47-13.49-2.34
						c-9.38-1.84-18.58-4.25-27.03-8.89c-2.91-1.6-5.64-3.45-7.73-6.08c-2.94-3.68-2.75-7.46,0.59-10.78
						c3.29-3.27,7.5-4.88,11.78-6.31c3.81-1.28,7.73-2.17,11.7-2.81c0.98-0.16,1.43-0.57,1.81-1.4c2.15-4.62,4.63-9.06,7.02-13.56
						c2.08-3.92,5.24-6.48,9.16-8.27c7.56-3.45,15.6-5.03,23.77-6.07c2.5-0.32,5.01-0.5,7.53-0.66c0.83-0.05,1.06-0.27,1.12-1.14
						c0.35-5.37,4.19-8.83,9.19-8.37c4.69,0.43,7.95,4.68,7.33,9.73c-0.15,1.24,0.32,1.48,1.35,1.7c7.59,1.65,14.87,4.15,21.62,8.06
						c3.08,1.78,5.89,3.91,8.55,6.27c3.44,3.06,5.52,6.88,6.66,11.28c0.32,1.22,0.79,2.39,1.07,3.62c0.18,0.82,0.59,0.93,1.28,0.78
						c2.75-0.6,5.51-1.19,8.26-1.79c0.58-0.13,1.08-0.36,0.79-1.09c-0.49-1.21,0.3-1.71,1.14-2.28c1.68-1.15,3.31-2.38,4.99-3.55
						c0.63-0.44,0.74-0.79,0.38-1.59c-4.8-10.76-7.52-22.11-9.14-33.72c-0.61-4.35,0.71-8.58,1.49-12.82c0.19-1.04,0.18-1.99-0.1-3
						c-0.88-3.24-1.6-6.51-2.32-9.79c-0.97-4.41,0.52-7.74,3.73-10.57C227.14,78.93,227.69,78.39,228.34,77.77z"/>
					<path class="st10" d="M245.73,195.71c2.56,4.6,5.28,8.88,8.93,12.48c2.43,2.41,5.2,4.2,8.51,5.18
						c5.41,1.6,8.92,3.95,14.21,5.88c0.73,0.27,0.96,0.68,1.05,1.42c0.59,4.76,0.61,4.75-4.02,6.22c-3.99,1.27-6.33,2.65-10.35,3.83
						c-2.23,0.66-3.28,2.16-3.55,4.26c-0.35,2.69,0.01,5.31,1.87,7.45c0.5,0.58,0.38,0.98,0.21,1.58c-0.95,3.27-0.45,6.2,2.3,8.44
						c0.6,0.49,0.58,0.89,0.45,1.52c-0.42,2.04,0.06,3.82,1.78,5.12c0.65,0.5,1,0.98,0.62,1.81c-0.1,0.21-0.06,0.47-0.08,0.71
						c-0.58,6.59,0.52,8.27,6.84,10.05c1.78,0.5,3.62,0.84,5.45,1.15c1.83,0.31,3.49,0.04,4.44-1.86c0.12-0.25,0.27-0.59,0.63-0.57
						c2.24,0.15,4.38-0.59,6.6-0.69c1.33-0.06,1.2,0.89,1.27,1.7c-1.37,10.17,1.19,18.99,0.91,25.1
						c-0.38,8.58-6.67,13.08-8.38,21.52c-0.08,0.42,7.85-11.59,9.93-10.6c2.31,1.1,5.01,11.43,4.9,11.89
						c-0.46,1.91-2.4,3.92-5.01,5.83c-10.88,3.25-22.41,4.99-34.34,4.99c-20.83,0-40.43-5.31-57.5-14.65
						c0.4-8.3,0.8-16.59,1.25-24.88c0.33-6.18,1.48-12.27,2.28-18.39c1.69-12.91,3.48-25.81,5.22-38.71
						c0.85-6.3,1.73-12.6,2.51-18.91c0.16-1.27,0.85-1.19,1.72-1.18c5.59,0.02,11-0.79,15.89-3.75c5.09-3.08,8.94-7.4,12.3-12.22
						C244.9,196.9,245.27,196.36,245.73,195.71z"/>
					<path class="st10" d="M331.72,172.41c-6.61,6.44-9.24,10.02-10.37,14.43c1.03-1.36,1.76-2.32,2.49-3.29
						c2.56-3.42,5.21-6.75,8.65-9.36c1.96-1.48,2.08-1.48,3.19,0.79c2.22,4.53,3.82,9.3,5.58,14.01
						c3.12,8.35,5.98,16.81,10.51,24.58c-2.28-0.88-3.66-2.54-8.78-10.36c0.85,3.69,2.57,6.92,5.12,9.76
						c2.55,2.84,5.89,4.52,9.2,6.17c2.9,1.45,4.66,3.25,4.52,6.78c-0.12,2.85,0.01,5.79,0.74,8.59c1.55,5.93,1.56,12.22,4.19,17.89
						c0.17,0.36,0.12,0.82,0.2,1.36c0.62-2.05,0.25-3.96-0.14-5.87c-0.38-1.87-0.79-3.73-0.85-5.71c0.62,1.6,1.48,3.14,1.82,4.79
						c0.79,3.82,1.12,7.72,1.09,11.63c-0.05,5.91-2.69,10.75-6.6,14.95c-6.81,7.32-14.91,12.57-24.68,15.05
						c-2.52,0.64-2.91,0.84-5.5,0.3c-1.32-0.28-1.87-0.76-1.79-2.24c0.49-9.18-1.59-18.35-2.41-27.52c-0.45-5.02-1.9-9.74-3.9-14.33
						c-0.23-0.54-0.45-1.09-0.72-1.74c4.7-0.2,9.15-1.19,13.63-1.98c8.04-1.42,14.87,1.25,21.08,6.1c0.23,0.18,0.45,0.37,1.03,0.86
						c-0.72-1.81-1.66-2.91-2.77-3.9c-1.73-1.54-3.75-2.58-5.84-3.49c-0.79-0.34-1.3-0.75-1.35-1.68c-0.12-2.16,1.92-4.66,4.02-5.01
						c1.65-0.28,3.31-0.23,5.42-0.24c-1.38-1.12-2.63-1.02-3.78-1.07c-4.14-0.19-7.82,1.34-11.55,2.93
						c-5.47,2.32-11.16,2.55-16.83,0.6c-2.55-0.88-4.23-2.86-5.71-5.02c-7.91-11.55-8.8-23.77-3.52-36.59
						c0.12-0.28,0.23-0.55,0.36-0.82c0.15-0.31,0.46-0.66,0.04-0.93c-0.48-0.31-0.59,0.23-0.76,0.47
						c-4.56,6.41-7.92,13.38-9.72,21.07c-0.21,0.92-0.38,1.84-0.65,2.74c-0.07-4.94-0.41-9.91,1.77-14.71
						c-1.45,0.77-2.04,2.01-2.3,4.32c-0.19,1.64-0.24,3.32-0.91,5.06c-0.27-2.41-0.51-4.62-0.76-6.84
						c-1.15,5.61-1.43,11.22-1.13,16.83c0.22,4.05-0.14,6.08-2.48,9.4c-0.77-0.69-1.2-1.59-1.65-2.47
						c-1.85-3.56-3.18-5.89-4.84-9.54c-1.58-3.47-2.99-6.81-2.17-10.53c0.34-1.53,1.04-3.47-0.47-4.55c-1.58-1.14-3.35,0-4.88,0.78
						c-3.2,1.63-5.23,4.26-6.14,8.12c-1.14-4.09-2.15-7.84-3.64-11.44c-1.33-3.22-2.89-6.31-4.97-9.13
						c-1.68-2.27-0.65-7.95,1.76-9.86c2.31-1.83,4.9-3.25,7.43-4.74c5.11-3.01,10.34-5.84,15.09-9.43c1.53-1.16,3.05-2.35,4.04-4.05
						c0.28-0.47,0.56-0.66,1.15-0.5C311.4,166.69,321.53,169.54,331.72,172.41z"/>
					<path class="st11" d="M283.74,133.7c-6.11,5.24-12.07,10.65-18.56,15.4c-1.98,1.45-4.08,2.74-6.13,4.1
						c-6.21,4.16-16.66,2.26-21.68-2.79c-1.61-1.62-2.35-3.76-3.12-5.82c-3.4-9.12-5.81-18.52-7.26-28.15
						c-0.54-3.62,0.19-7.17,0.93-10.71c1.38-6.58,1.85-13.29,2.6-19.95c0.21-1.9,0.71-3.77,0.97-5.67c0.15-1.07,0.75-1.62,1.71-1.8
						c15.16-2.7,30.08-2.67,44.44,3.86c3.67,1.67,7.09,3.75,10.38,6.07c0.94,0.67,1.07,1.27,0.85,2.35
						c-1.69,8.36-2.03,16.78-0.68,25.22c0.41,2.55,0.9,2.61,2.86,0.95c2.22-1.87,3.82-4.31,5.93-6.28c0.61-0.57,1.27-1.1,1.91-1.64
						c0.57-0.49,1.01-0.7,1.41,0.25c0.28,0.66,0.98,0.85,1.68,0.8c4.63-0.34,8.1,4.13,6.47,9.54c-0.87,2.9-2.77,5.01-5.1,6.78
						c-2.71,2.06-5.83,3.3-9.08,4.19c-1.42,0.39-2.69-0.25-3.89-0.99c-1.58-0.98-2.76-0.43-2.84,1.4
						c-0.22,5.48-1.72,10.77-2.37,16.19c-0.26,2.19-0.85,4.35-0.39,6.59c0.12,0.61-0.42,0.96-0.74,1.36
						c-2.78,3.43-6.14,6.23-9.81,8.77c3.37-6.25,5.42-12.97,7.34-19.75c-0.96,0.94-1.22,2.23-1.67,3.4
						c-2.15,5.52-4.12,11.12-7.39,16.14c-1.4,2.15-3.06,3.96-5.32,5.23c-1.99,1.11-3.94,2.29-5.81,3.59
						c-2.95,2.05-6.28,2.47-9.86,2.69c0.22-1.6,0.95-3.04,0.54-4.72c-1.1,0.65-1.12,1.89-1.71,2.76c-0.4,0.59-0.08,1.81-1.16,1.76
						c-1.12-0.05-2.51-0.19-3.05-1.25c-1.95-3.79-4.62-7.34-4.5-11.99c0.62-0.11,0.92,0.42,1.31,0.69c2.63,1.86,5.48,3.2,8.66,3.78
						c2.23,0.41,4.24,0.05,6.07-1.45C268.29,155.93,276.74,145.44,283.74,133.7z"/>
					<g>
						<path class="st10" d="M234.17,99.66c1.22,2.37,0.88,2.5,2.7,3.04c1.83,0.54,9.06-0.07,9.06-0.07s1.29-0.74,1.15-1.22
							c-0.14-0.47-1.96-3.65-1.96-3.65l-8.65-0.2C236.47,97.57,235.86,98.24,234.17,99.66z"/>
						<path class="st10" d="M262.83,101.49c1.01,1.96,3.72,3.18,3.72,3.18l8.49,0.06l3.41-1.95c0,0-2.91-2.77-4.46-3.38
							c-1.56-0.61-7.91-0.88-8.72-0.74C264.45,98.78,262.83,101.49,262.83,101.49z"/>
					</g>
					<path class="st10" d="M327.73,89.31c-3.87,1.87-6.82,0.56-9.33-2.22c-3.74-4.15-5.69-9.25-7.48-14.42
						c-1.08-3.12-1.87-6.31-2.61-9.74c-0.93,1.28-1.54,2.59-2.63,3.54c-1.66,1.44-3.23,1.34-4.68-0.32c-1.83-2.09-1.64-4.5-1.2-6.99
						c0.54-2.97,0.29-3.23-2.63-2.62c-4.73,0.98-9.25-0.01-13.86-1.04c-10.09-2.25-14.7-9.1-16.39-18.62
						c-0.21-1.16-0.4-2.32-0.66-3.88c-2.85,4.83-5.05,9.5-6.91,14.35c-0.75,1.96-1.93,3.53-3.56,4.86
						c-2.13,1.74-4.69,0.91-7.39,1.61c3.08-3.56,4.2-7.55,5.27-11.7c-0.99,0.13-1.04,0.85-1.24,1.34
						c-2.41,6.01-7.09,9.57-13.08,11.07c-3.47,0.87-6.98-0.49-9.91-2.73c-1.98-1.51-3.4-3.54-4.81-5.56
						c-0.37-0.53-0.73-1.06-1.19-1.74c-0.09,3.07,2.9,8.35,6.58,11.86c-3.54,0.24-6.99-1.97-9.69-6.4
						c-3.99,9.08,0.45,15.65,6.14,22.23c-9.39-6.68-14.85-16.92-11.83-26.87c2.33-7.69,9.95-13.74,17.37-13.6
						c0.3,0.01,0.6,0.01,0.9,0.04c2.52,0.25,2.52,0.26,2.3,2.73c-0.43,4.72-0.1,6.67,1.52,8.93c0.37-0.01,0.32-0.31,0.29-0.51
						c-1.36-9,2.08-15.84,9.79-20.29c12.48-7.2,25.58-8.14,38.82-2.32c7.13,3.13,11.8,8.71,13.52,16.47
						c0.57,2.55,0.34,5.14,0.14,7.71c-0.03,0.41-0.25,0.95,0.25,1.11c0.74,0.23,0.68-0.56,0.79-0.92c0.5-1.66,0.99-3.35,0.93-5.11
						c-0.04-1.34,0.58-2,1.83-2.44c7.65-2.71,14.48-1.04,20.4,4.18c8.57,7.55,8.97,18.57,3.72,28.23c-0.42,0.77-0.93,0.76-1.61,0.75
						c-2.22-0.03-4.34,0.39-6.75,1.52c1.77,0.55,3.2,0.49,4.55,0.43c3.7-0.14,6.3,1.69,8.38,4.42c6.76,8.87,1.57,24.32-9.15,27.35
						c-0.6,0.17-1.23,0.23-1.94,0.21C326.88,101.11,328.78,96.03,327.73,89.31z"/>
					<path class="st12" d="M179.17,169.06c-28.23-0.41-36.83-1.63-62.17-10.81c-1.12-0.4-1.13-0.81-0.69-1.77
						c2.09-4.58,3.33-7.55,5.81-11.93c1.9-3.35,4.86-5.4,8.22-6.97c6.99-3.26,14.46-4.66,22.04-5.56
						c14.38-1.71,28.07,0.89,41.16,6.87c2.01,0.92,3.85,2.21,5.83,3.18c10.5,5.13,10.54,15.71,9.76,23.73
						c-0.11,1.16-0.83,1.4-1.83,1.5c-3.04,0.3-6.07,0.77-9.12,1.01C191.79,168.83,185.37,169,179.17,169.06z"/>
					<path class="st10" d="M135.35,200.35c2.83,4.73,7.1,7.19,11.89,9.59c-0.36-1.05-0.96-1.42-1.46-1.86
						c-2.19-1.87-4.4-3.72-6.58-5.6c-0.4-0.35-0.74-0.79-1.07-1.21c-2.14-2.73-1.12-5.29,2.31-5.85c0.41-0.07,0.83-0.14,1.65-0.29
						c-1.95,2.58-0.07,3.94,1.42,5.37c4.86,4.66,10.13,8.81,15.8,12.46c3.07,1.98,6.09,2.32,9.53,0.93
						c4.79-1.93,9.44-4.09,13.91-6.67c0.51-0.29,1.01-0.6,1.72-1.02c-0.13,5.42-0.18,10.61-1.15,15.74c-0.19,1-0.86,1.55-1.69,1.62
						c-4.04,0.34-7.58,2.11-11.21,3.67c-1.64,0.71-3.27,1.45-4.88,2.26c3.22-0.34,6.3-1.26,9.36-2.25c1.32-0.43,3-1.7,3.94-0.86
						c0.75,0.66-0.3,2.55-0.65,3.86c-0.68,2.6-1.46,5.18-2.25,7.75c-0.96,3.11-2.79,5.67-5.09,7.94c-3.51,3.46-6.91,7.02-10.97,9.85
						c-0.69,0.48-1.34,1.06-0.68,1.9c0.66,0.85,1.4,0.26,2.04-0.19c4.24-3,7.86-6.69,11.46-10.38c0.46-0.47,0.9-0.96,1.45-1.38
						c-1.26,3.52-3.9,6.22-5.77,9.41c1.8-0.71,3.01-2.08,4.14-3.5c2.61-3.29,4.28-7.04,5.27-11.12c1.07-4.42,2.25-8.82,3.29-13.25
						c0.26-1.09,1.1-1.43,1.85-1.78c1.66-0.77,2.36-2.05,2.63-3.77c0.72-4.52,0.9-9.07,1.01-13.63c0.02-0.72,0.04-1.44,0.11-2.15
						c0.23-2.25-0.02-4.22-2.59-5.05c-0.74-0.24-0.85-1.09-1.28-1.47c3.1-2.48,6.73-2.24,10.35-2.11
						c-0.6,6.17-1.06,12.35-1.82,18.52c-1.74,14.21-8.29,25.98-17.53,36.53c-4.27,4.88-8.93,9.26-14.98,11.83
						c-4.84,2.06-9.88,2.91-15.1,1.53c-1.89-0.5-3.5-1.42-4.84-2.93c-3.59-4.06-6.8-8.37-9.35-13.18
						c-2.04-3.84-1.64-7.77-0.67-11.74c0.76-3.08,1.78-6.09,3.02-9.01c0.2-0.47,0.16-1.25,1.17-0.81c3.32,1.45,6.86,1.73,10.41,1.61
						c4.39-0.15,8.74,0.61,13.12,0.43c0.54-0.02,1.41,0.28,1.5-0.54c0.1-0.92-0.87-0.67-1.36-0.73c-5.34-0.6-10.52-1.69-15.36-4.16
						c-5.15-2.63-8.72-6.61-10.85-11.97c-0.77-1.93-0.81-3.65,0.3-5.47C132.24,204.93,133.66,202.66,135.35,200.35z"/>
					<path class="st13" d="M174.49,211.48c2.82-1.29,5.58-2.69,8.27-4.25c0.51-0.29,1.01-0.6,1.72-1.02
						c-0.13,5.42-0.18,10.61-1.15,15.74c-0.19,1-0.86,1.55-1.69,1.62c-4.04,0.34-7.58,2.11-11.21,3.67
						c-0.58,0.25-1.16,0.5-1.73,0.76c2.83-2,5.78-5.07,5.78-5.07V211.48L174.49,211.48z M166.21,229.41
						c-0.43,0.17-0.84,0.26-1.19,0.26c-2.98,0,8.38,0.54,8.38,0.54l-8.9,21.86c2.19-1.97,4.25-4.08,6.35-6.15
						c2.3-2.27,4.13-4.83,5.09-7.94c0.79-2.57,1.57-5.15,2.25-7.75c0.34-1.31,1.4-3.2,0.65-3.86c-0.94-0.83-2.62,0.43-3.94,0.86
						C172.06,228.16,169.19,229.02,166.21,229.41L166.21,229.41z M159.71,258.07l-7.41,8.05c2.22-0.35,4.4-1.02,6.54-1.93
						c6.05-2.57,10.71-6.95,14.98-11.83c9.24-10.55,15.79-22.32,17.53-36.53c0.76-6.16,1.22-12.34,1.82-18.52
						c-3.62-0.13-7.25-0.36-10.35,2.11c0.44,0.38,0.54,1.23,1.28,1.47c2.57,0.83,2.83,2.79,2.59,5.05c-0.07,0.71-0.1,1.43-0.11,2.15
						c-0.11,4.56-0.29,9.11-1.01,13.63c-0.27,1.72-0.97,3-2.63,3.77c-0.75,0.35-1.59,0.69-1.85,1.78
						c-1.04,4.43-2.22,8.83-3.29,13.25c-0.99,4.08-2.66,7.82-5.27,11.12c-1.13,1.42-2.34,2.79-4.14,3.5
						c1.88-3.19,4.51-5.89,5.77-9.41c-0.55,0.42-0.99,0.91-1.45,1.38c-3.61,3.7-7.22,7.39-11.46,10.38
						C160.77,257.83,160.23,258.25,159.71,258.07z"/>
					<path class="st10" d="M200.69,224.58c-2.34,4.25-3.97,8.55-6.47,12.42c3.26-13.24,1.14-26.42-0.18-39.75
						c7.19-0.44,14.59-0.88,22.23-2.25c-1.89,2.85-3.5,5.53-4.7,8.42c-0.67,1.6-1.33,3.21-2.07,4.78c-0.45,0.96-0.87,2-2.09,2.31
						c-0.63,0.16-0.83,0.66-0.72,1.26c0.12,0.67,0.68,0.79,1.22,0.86c1.13,0.15,2.26,0.37,3.39,0.37c1.17,0,1.37,0.43,1.22,1.51
						c-0.83,5.88-1.61,11.77-2.4,17.65c-1.74,12.96-3.52,25.92-5.21,38.89c-0.91,6.96-2.19,13.87-2.52,20.9
						c-0.35,7.46-0.71,14.91-1.07,22.36c-6.04-1.91-11.97-2.45-16.67-6.17c1.93-8.05,5.3-20.15,6.64-28.63
						c1.35,3.44,1.94,6.62,2.28,9.87c0.35,3.33-0.36,6.51-1.23,9.7c1.83-2.82,2.81-5.89,2.9-9.24c0.13-4.64-1.11-9.02-2.48-13.38
						c-2.02-6.41-2.49-12.89-1.06-19.5c1.18-5.45,2.21-10.92,3.27-16.4c0.13-0.68,0.44-1.22,0.77-1.79c2.23-3.86,4.06-7.88,5-12.26
						C200.85,225.99,201.11,225.49,200.69,224.58z"/>
					<path class="st10" d="M232.27,76.32c1.31-5.9,2.56-11.51,3.8-17.12c0.16-0.73,0.53-1.02,1.28-1.22
						c28.09-7.58,56.39,1.96,72.98,27.44c0.37,0.57,0.6,1.02,0.25,1.77c-1.86,4.01-3.65,8.07-5.53,12.27
						c-1.55-2.2-2.94-4.32-4.49-6.32c-1.55-2-3.56-3.5-5.83-4.73c2.95,3.3,5.91,6.58,7.8,10.64c-2.6-2.84-5.15-5.71-8-8.31
						C282.73,80,268.76,74.9,252.91,74.56C246.06,74.41,239.27,75.01,232.27,76.32z"/>
					<path class="st12" d="M207.83,169.53c-1.27,2.88-3.26,5.08-5.61,6.97c-5.54,4.45-12.04,7.1-18.52,9.77
						c-0.37,0.15-0.82,0.14-1.24,0.14c-18.58-0.06-37.03-1.49-55.23-5.43c-4.5-0.97-8.96-2.18-13.1-4.3
						c-0.59-0.3-1.16-0.62-1.72-0.97c-2.94-1.88-3.11-2.31-1.97-5.51c0.95-2.65,1.97-5.27,2.94-7.91c0.26-0.69,0.52-1.08,1.42-0.73
						c15.91,6.14,32.57,8.33,49.46,9.15c14.1,0.68,28.19,0.72,42.22-1.16C206.89,169.48,207.3,169.53,207.83,169.53z"/>
					<path class="st12" d="M217.86,170.36c5.99,2.16,11.71,3.73,16.48,7.66c0.55,0.46,1.07,0.97,1.52,1.53
						c1.96,2.43,1.77,4.52-0.63,6.57c-1.94,1.66-4.23,2.69-6.61,3.56c-7.5,2.72-15.33,3.82-23.22,4.62
						c-8.73,0.88-17.49,1.14-26.25,0.94c-23.63-0.55-47.03-2.86-69.83-9.56c-5.24-1.54-10.34-3.44-15.12-6.13
						c-1.78-1-3.46-2.15-4.89-3.64c-2.65-2.77-2.47-5.2,0.6-7.56c1.97-1.52,4.23-2.47,6.55-3.31c4.75-1.72,8.54-2.68,13.69-3.49
						c-1.17,3.29-2.19,6.46-3.42,9.54c-0.74,1.86-0.22,3.25,1.05,4.55c2.06,2.12,4.67,3.31,7.37,4.34
						c7.21,2.75,15.87,4.57,23.46,5.73c15.93,2.42,31.97,3.48,48.07,3.26c8.52-0.12,17.03-0.48,25.37-2.49
						c2.16-0.52,4.28-1.19,6.11-2.53c1.54-1.13,2.23-2.46,1.67-4.5C219.04,176.58,218.55,173.63,217.86,170.36z"/>
					<path class="st14" d="M289.11,228.28c-1.42-1.51-3.28-2.04-5.19-2.38c-0.8-0.14-1.26-0.36-1.38-1.25
						c-0.48-3.71-0.66-7.43,0.01-11.12c0.73-4.07,3.36-6.47,7.35-7.71c0.38,1.59-0.13,3.03-0.37,4.44
						c-0.45,2.63-0.19,5.11,0.76,7.58c2.09,5.43,4.38,10.77,7.47,15.72c3.47,5.57,5.52,11.61,6.66,18.02
						c0.23,1.3,0.35,2.64,0.78,3.87c0.67,1.88-0.03,3.18-1.26,4.49c-1.54,1.64-2.95,3.4-5.01,4.71c0.17-0.94,1.08-1.49,0.74-2.42
						c-11.85,6.5-13.54,6.55-21.82,4.71c-0.09,0.67,0.73,0.67,0.89,1.29c-2.06-0.62-5.41-0.52-6.75-2.12
						c-0.8-0.96-0.55-3.66-0.02-4.96c0.65-1.59,5.84-2.18,7.66-2.39c2.03-0.23,2.5-0.75,2.15-2.68c-3.78,1.15-7.65,2.42-11.54,2.11
						c-1.16-0.09-2.7-6.17-1.04-6.42c2.61-0.4,6.59-1.68,9.07-2.58c2.07-0.75,3.04-3.23-2.01-1.65c-2.52,0.79-7.15,2.64-9.87,2.41
						c-0.98-0.08-1.46-3.51-1.34-5c0.09-1.12,0.81-1.4,1.58-1.65c2.91-0.93,5.82-1.86,8.73-2.79c2-0.63,5.1-5.12-0.49-2.6
						c-2.67,1.2-5.4,2.27-9.25,2.95c-2.03-0.28-2.61-3.64-2.68-5.51c-0.05-1.4,0.47-2.18,1.89-2.61c4.3-1.3,8.53-2.8,12.84-4.08
						c3.38-1,6.85-1.13,10.32-0.28C288.32,228.46,288.64,228.74,289.11,228.28z"/>
					<path class="st10" d="M304.39,240.93c4.32,9.31,7.48,18.84,7.17,29.23c0.55-1.08,0.66-7.47,0.29-9.36
						c-1.24-6.33-1.76-12.84-4.83-18.7c-0.22-0.42-0.28-0.91-0.41-1.38c-0.19-0.71,0.01-0.96,0.8-0.85
						c4.03,0.55,8.1,0.91,11.95,2.39c0.89,0.34,1.47,0.86,1.9,1.72c3.3,6.61,4.74,13.64,4.98,20.98c0.35,10.75,0.3,21.48-1.25,32.14
						c-0.36,2.49-1.21,4.87-2.1,7.23c-0.25,0.67-0.58,1.13-1.31,1.3c-4.59,1.06-9.18,2.14-14.11,3.29
						C312.23,285.9,310.05,263.34,304.39,240.93z"/>
					<path class="st15" d="M293.9,148.02c-1.17,2.6-2.81,4.81-4.35,7.09c-1.54,2.29-3.37,4.35-5.25,6.37
						c4.38-3.09,7.49-7.32,10.53-12.19c0.51,2.79,0.9,5.07,1.36,7.34c0.18,0.86-0.17,1.29-0.83,1.75
						c-4.13,2.88-8.48,5.44-12.44,8.57c-1.58,1.25-3.17,2.5-4.67,3.88c6.38-3.12,12.42-6.82,18.41-10.67
						c0.88,2.66,0.88,2.66-1.45,3.93c-11.22,6.07-22.45,12.1-33.65,18.21c-2.54,1.39-5.03,2.5-7.89,1.06
						c4.59-3,9.91-4.75,14.64-7.64c-3.73,0.93-7.32,2.23-10.77,3.91c-1.67,0.81-3.34,1.6-4.99,2.46c-0.71,0.37-1.29,0.34-1.66-0.37
						c-0.4-0.79,0.49-0.82,0.83-1.03c6.92-4.4,14.18-8.27,20.92-12.97c4.83-3.38,9.49-6.96,13.22-11.58
						c1.9-2.35,3.51-4.88,4.18-7.87c0.29-1.32,0.86-1.43,1.92-0.93C292.54,147.63,293.19,147.78,293.9,148.02z"/>
					<path class="st15" d="M278.54,214.8c-7.88-10.17-14.62-20.81-26.6-26.06c2.7-0.45,5.23,0.42,11.13,3.85
						c-1.32-2.15-5.49-4.47-9.15-5.09c-0.36-0.06-0.71-0.11-1.07-0.16c-0.55-0.08-0.83-0.31-0.74-0.95
						c0.09-0.69,0.51-0.74,1.02-0.67c7.24,0.96,13.88,3.13,18.09,9.66C274.94,201.12,276.85,207.61,278.54,214.8z"/>
					<path class="st15" d="M229.09,158.94c2.31,3.09,3.75,6.66,6.1,9.7c-1.11-2.46-2.22-4.93-3.35-7.39
						c-0.27-0.6-0.65-1.14-0.95-1.73c-1.24-2.49-1.23-2.49,0.97-4.12c1.01-0.74,2.02-1.48,3.22-2.36
						c2.83,9.82,7.32,18.75,12.35,27.45c-1.06,0.58-1.58,0.22-2.25-0.63c-1.81-2.3-3.52-4.71-5.87-6.57
						c1.43,2.82,3.48,5.25,5.3,7.91C241.65,180.9,228.95,162.58,229.09,158.94z"/>
					<path class="st15" d="M273.5,211.65c-3.79-2.23-7.83-3.62-11.75-5.31c-5.55-2.4-9.26-6.64-11.35-12.31
						c-0.12-0.34-0.28-0.68-0.33-1.02c-0.09-0.74,0.12-1.51,0.6-2c0.51-0.52,1.1,0.1,1.6,0.32c5.81,2.64,10.26,6.98,14.36,11.71
						C269.03,205.81,271.22,208.77,273.5,211.65z"/>
					<path class="st15" d="M213.17,209.71c9.44-6.94,18.07-14.83,29.69-18.15c-1.66,2.49-3.74,4.46-5.66,6.56
						c-1.21,1.33-2.63,2.48-3.8,3.84c-4.49,5.22-10.69,6.52-17.02,7.5C215.41,209.62,214.45,210.04,213.17,209.71z"/>
					<path class="st11" d="M151.61,204.25c2.19,1.06,4.23,0.76,6.38-0.16c2.27-0.97,4.66-0.26,6.84,0.53c2.73,1,5.37,1.07,8.04,0.01
						c0.94-0.38,1.28-0.19,1.4,0.81c0.35,3.11-0.1,3.92-2.99,5.14c-7.07,2.99-7.61,2.95-13.9-1.51c-1.99-1.41-3.92-2.91-5.88-4.37
						C151.53,204.56,151.57,204.41,151.61,204.25z"/>
					<path class="st15" d="M212.51,207.29c1.56-4.58,3.63-8.84,6.81-12.49c0.41-0.47,0.93-0.53,1.44-0.64
						c3.75-0.82,7.45-1.81,10.98-3.37c0.14-0.06,0.33-0.01,0.66-0.01c-0.7,0.6-1.28,1.09-1.86,1.59c3.46-1.48,6.96-2.67,10.82-2.81
						C230.27,193.09,221.72,200.68,212.51,207.29z"/>
					<path class="st8" d="M307.85,228.59c2.83,4.18,6.92,6.9,10.12,10.89c-4.33-1.09-8.42-1.5-12.52-1.94
						c-0.89-0.09-1.29-0.35-0.94-1.33C305.4,233.67,306.46,231.21,307.85,228.59z"/>
					<path class="st10" d="M299.01,284.12c0.22,8.79,0.86,16.85,2.81,24.76c0.11,0.45,0.54,1.22-0.16,1.41
						c-0.81,0.22-0.82-0.71-0.98-1.21c-1.35-4.32-1.89-8.79-2.33-13.26c-0.79-7.95-1-15.93-1.08-23.91
						c-0.01-0.61-0.32-1.42,0.78-1.41c1.06,0.02,0.62,0.85,0.65,1.34C298.91,276.16,299.12,280.48,299.01,284.12z"/>
					<path class="st12" d="M168.62,122.29c2.48,0,2.65,2.56,2.07,4.97c-0.17,0.7-0.47,0.97-1.24,0.86
						c-2.07-0.29-2.12-0.24-4.19-0.44c-0.6-0.06-0.78-0.3-0.82-0.89C164.28,124.57,166.37,122.29,168.62,122.29z"/>
					<path class="st10" d="M225.79,170.57c-2.37-0.86-5.06-1.82-7.75-2.8c-0.6-0.22-2.1-3.63-1.75-4.17
						c0.45-0.67,1.12-0.43,1.72-0.08c1.35,0.79,2.64,1.67,3.75,2.78C223.2,167.73,224.56,169.25,225.79,170.57z"/>
					<path class="st10" d="M175.23,208.8c1.09-2.04,1.91-3.6,2.75-5.15c0.13-0.25,0.4-0.66,0.53-0.63c1.88,0.38,3.8,0.17,5.74,0.32
						C181.63,205.61,178.63,207.02,175.23,208.8z"/>
					<path class="st15" d="M246.33,187.85c0.24-1.36,0.63-2.68,1.4-3.84c0.29-0.44,0.63-0.99,1.27-0.82
						c0.62,0.16,0.98,0.67,1.05,1.32c0.22,1.94-0.69,3.6-1.37,5.31c-0.14,0.36-0.47,0.37-0.72,0.15
						C247.27,189.39,246.13,189.13,246.33,187.85z"/>
					<path class="st15" d="M234.57,189.52c1.65-1.32,3.27-2.57,4.32-4.49c0.49-0.89,1.8-0.7,2.78-0.76c0.46-0.03,0.3,0.39,0.29,0.65
						c-0.03,0.71-0.09,1.43-0.09,2.14c0,0.46,0,0.79-0.62,0.81C238.92,187.97,236.77,188.82,234.57,189.52z"/>
					<path class="st15" d="M246.04,188.38c-1.34-1.38-1.81-2.75-1.42-4.27c0.31-1.24,1.52-1.09,2.69-1.26
						C246.44,184.58,245.97,186.28,246.04,188.38z"/>
					<path class="st9" d="M220.38,260.58c-0.09,2.29-2,4.06-4.27,3.96c-2.16-0.1-3.98-2.01-3.94-4.15c0.04-2.21,2.04-4.15,4.22-4.08
						C218.64,256.39,220.47,258.34,220.38,260.58z"/>
					<path class="st9" d="M227.26,220.93c-0.02,2.35-1.79,4.1-4.12,4.07c-2.18-0.03-3.96-1.84-3.99-4.05
						c-0.03-2.27,1.84-4.19,4.07-4.18C225.51,216.77,227.28,218.59,227.26,220.93z"/>
					<path class="st9" d="M213.29,310.15c-2.32-0.03-4.09-1.87-4-4.16c0.09-2.24,1.83-3.9,4.1-3.89c2.35,0,4.11,1.77,4.08,4.09
						C217.44,308.5,215.66,310.18,213.29,310.15z"/>
					<path class="st9" d="M303.77,168.01c0.25-0.47,0.61-0.22,0.94-0.14c5.32,1.23,10.53,2.81,15.59,4.86
						c0.44,0.18,0.86,0.41,1.28,0.64c0.47,0.26,1.07,0.5,0.87,1.18c-0.21,0.68-0.85,0.53-1.37,0.47c-1.62-0.19-3.16-0.74-4.65-1.35
						c-4.04-1.66-8.06-3.39-12.07-5.1C304.12,168.45,303.73,168.44,303.77,168.01z"/>
					<path class="st9" d="M250.46,138.05c-2.6,0-4.73-0.3-6.8-0.96c-1.63-0.52-1.87-1.16-0.73-2.34c1.48-1.54,1.96-3.17,1.05-5.2
						c-0.68-1.52-1.21-3.12-1.79-4.68c-0.24-0.64-0.8-1.3-0.12-1.98c0.56-0.57,1.23-0.29,1.86-0.14c3.09,0.71,6.18,1.42,9.35,1.71
						c4.42,0.41,8.72-0.09,12.9-1.59c0.68-0.24,1.42-0.67,2-0.05c0.56,0.6,0.17,1.34-0.11,2.01c-2.63,6.18-6.56,10.97-13.42,12.67
						C253.13,137.87,251.6,138.09,250.46,138.05z"/>
					<path class="st9" d="M258.4,89.46c5.04,0.11,10.04-0.71,15.08-0.4c4.61,0.29,7.46,3.27,7.48,8.25
						c-3.12-4.57-7.51-4.21-11.94-3.74c-2.09,0.22-4.17,0.42-6.28,0.25C259.5,93.56,258.77,92.87,258.4,89.46z"/>
					<path class="st9" d="M296.71,117.49c1.9-0.5,3.46-0.39,4.48,1.23c0.7,1.12,0.43,2.15-0.65,3.22c-0.15-1.11,0.08-2.25-0.99-2.79
						c-0.61-0.31-1.29-0.24-1.92,0.02c-0.89,0.37-1.34,0.69-0.46,1.74c1.69,2.02,0.76,4.43-1.74,4.9c-0.66,0.12-1.37,0.22-1.59-0.68
						c-0.17-0.71,0.18-1.17,0.83-1.36c0.52-0.16,1.15-0.19,1.11-0.92c-0.03-0.69-0.6-1.07-1.15-1.25c-1.3-0.42-1.43-1.21-1.02-2.37
						c0.78-2.23,1.72-4.35,3.42-6.04c1.8-1.78,4.22-2.38,6.07-1.47c2.23,1.1,2.89,3.07,2.81,5.38c-0.08,2.36-1.1,4.38-2.35,6.31
						c-0.45,0.71-1.06,1.09-1.79,0.61c-0.69-0.46-0.45-1.15-0.06-1.75c0.72-1.11,1.36-2.24,1.75-3.52c0.28-0.94,0.39-1.89,0.23-2.84
						c-0.36-2.22-2.22-3.08-4.14-1.92C298.29,114.74,297.43,115.87,296.71,117.49z"/>
					<path class="st9" d="M265.36,103.95c0.45,0.05,0.91,0.1,1.58,0.17c-0.71-1.39-1.11-2.73-1.08-4.26
						c-1.2,0.21-1.4,1.28-1.99,1.94c-0.69,0.78-1.23,2.25-2.37,1.82c-1.15-0.44-1.22-1.9-1.11-3.54c0.43,0.77,0.7,1.23,0.94,1.66
						c0.42-0.02,0.58-0.29,0.69-0.56c1.2-2.99,3.49-3.82,6.51-3.43c2.73,0.35,5.51,0.33,8.08,1.5c0.65,0.29,0.67,0.4,0.37,1.03
						c-0.17,0.35,0.19,0.49,0.36,0.69c0.83,0.93,1.75,1.8,2.04,3.24c-0.86-0.72-1.72-1.43-2.57-2.15c-1.15-0.98-2.41-1.79-3.89-2.14
						c-0.41-0.1-1.05-0.3-1.28,0.25c-0.24,0.56,0.29,0.98,0.72,1.05c2.01,0.36,2.22,0.91,2.08,2.24c-0.03,0.28-0.4,0.78-0.25,1
						c0.28,0.41,1.92,0,1.59,0.2c-0.87,0.53-4.42,0.92-5.16,0.88C268.8,105.45,266.92,105.36,265.36,103.95z"/>
					<path class="st9" d="M232.09,101.38c0.43-1.56,1.7-2.33,2.73-3.56c-0.59,0.1-1.06,0.17-1.46,0.24
						c-0.24-0.13-0.23-0.2-0.09-0.29c1.13-0.75,2.41-1.04,3.74-1.09c1.74-0.06,3.48-0.12,5.21-0.06c3.5,0.13,4.64,0.99,5.79,4.21
						c0.32,0.9-0.87,2.67-1.79,2.67c-0.25,0-0.5-0.02-0.58-0.3c-0.09-0.3-0.01-0.58,0.22-0.82c1.62-1.67-0.63-2.38-1-3.53
						c-0.32-0.99-1.65-1.01-2.69-0.91c-0.2,0.02-0.48,0.2-0.55,0.38c-0.13,0.32,0.13,0.55,0.38,0.73c0.84,0.58,1.83,0.46,2.73,0.56
						c0.44,1.06-1.25,1.72-0.47,2.89c0.13,0.19-0.55,0.36-0.86,0.43c-1.71,0.39-3.44,0.52-5.17,0.17c-0.65-0.13-1.5-0.17-0.39-1.11
						c0.6-0.5-0.3-1.07-0.45-1.62c-0.57-2.09-0.85-2.17-2.74-0.86C233.8,100.13,232.95,100.77,232.09,101.38z"/>
					<path class="st9" d="M250.67,95.4c0.05,0.53,0.05,1.08,0.17,1.6c0.63,2.55,0.37,4.97-0.84,7.31c-1.25,2.44-2.32,5-3.76,7.33
						c-1.23,1.99-0.92,3.69,0.14,5.49c0.35,0.59,0.71,1.18,0.94,1.85c-1.79-1.31-3.13-2.93-3.77-5.11
						c-1.23,1.46-0.27,2.65,0.58,3.87c-1.63-0.35-2.51-1.81-1.97-3.39c0.23-0.66,0.6-1.33,1.07-1.85c3.48-3.78,4.67-8.67,6.33-13.3
						c0.7-1.95-0.19-4.14-0.45-6.21c-0.06-0.47-0.16-0.93-0.14-1.43c0.85,1.18,0.87,2.73,1.73,3.9L250.67,95.4z"/>
					<path class="st9" d="M231.03,95.08c0.58-4.95,2.02-6.29,6.3-6c2.67,0.18,5.33,0.7,8,0.97c0.87,0.09,0.79,0.52,0.67,1.07
						c-0.27,1.24-1.12,1.77-2.32,1.84c-1.57,0.09-3.11-0.15-4.63-0.46C236.1,91.91,233.32,91.84,231.03,95.08z"/>
					<path class="st9" d="M253.69,140.69c-1.52,2.59-3.44,3.49-5.96,3.19c-2.04-0.24-3.38-1.32-4.3-3.63
						C246.79,142.05,250.12,141.84,253.69,140.69z"/>
					<path class="st16" d="M257.17,119.19c3.04-1.59,1.23-3.98,1-6.2c1.45,1.43,2.3,3.45,1.91,4.56
						C259.64,118.8,258.5,119.02,257.17,119.19z"/>
					<path class="st17" d="M241.3,151.62c-2.95-1-4.94-3.41-5.19-6.25C237.1,148.1,239.63,149.49,241.3,151.62z"/>
					<path class="st18" d="M233.75,129.32c0.15-0.54-0.32-1.2,0.39-1.32c0.64-0.1,0.62,0.57,0.78,1c0.3,0.84,0.71,1.64,0.7,2.56
						c0,0.37-0.06,0.75-0.49,0.84c-0.46,0.09-0.87-0.09-0.97-0.56C233.97,130.97,233.87,130.08,233.75,129.32z"/>
					<path class="st19" d="M275.14,130.26c-0.34,0.96-0.63,1.93-1.03,2.86c-0.15,0.35-0.47,0.76-0.98,0.49
						c-0.46-0.24-0.49-0.68-0.31-1.09c0.39-0.87,0.82-1.73,1.25-2.58c0.17-0.33,0.17-0.94,0.79-0.66
						C275.26,129.46,275.17,129.87,275.14,130.26z"/>
					<path class="st20" d="M250.71,95.46c0.12-0.84-0.59-1.56-0.31-2.6c1.06,1.25,1.96,2.38,1.52,4.13
						c-0.96-0.28-0.79-1.15-1.24-1.59C250.67,95.4,250.71,95.46,250.71,95.46z"/>
					<path class="st16" d="M256.51,117.84c-0.95,0.3-1.87,0.6-2.85,0.91C254.13,116.74,254.96,116.5,256.51,117.84z"/>
					<path class="st21" d="M325.86,48.56c2.49,2.8,2.65,6.16,2.31,9.6c-0.25,2.56-0.65,5.11-1.57,7.52c-0.2,0.52-0.41,1.4-1.08,1.25
						c-0.84-0.2-0.55-1.12-0.42-1.69c0.73-3.08,1.62-6.12,1.76-9.33C326.97,53.39,326.81,50.94,325.86,48.56z"/>
					<path class="st9" d="M256.36,20.54c-4.91,1.39-8.25,4.72-11.54,8.16c-0.69,0.72-1.68,2.28-2.39,1.6
						c-0.88-0.83,0.6-1.93,1.23-2.74c2.72-3.5,6.09-6.09,10.6-6.87c0.41-0.07,0.83-0.11,1.25-0.14
						C255.78,20.52,256.07,20.54,256.36,20.54z"/>
					<path class="st22" d="M255.6,46.84c-0.06,2.65-2.07,5.15-4.72,5.87C252.29,50.39,254.54,49.09,255.6,46.84z"/>
					<path class="st9" d="M181.08,211.09c0.88,0.03,1.28-0.05,1.47,0.36c0.17,0.37,0.04,0.74-0.27,0.96
						c-2.34,1.7-5.03,2.66-7.75,3.52c-0.29,0.09-0.56-0.09-0.76-0.36c-0.24-0.33-0.09-0.65,0.15-0.77
						C176.43,213.47,178.96,212.18,181.08,211.09z"/>
					<path class="st21" d="M193.36,267.99c0-1.25,0-2.5,0-3.76c0-0.28-0.05-0.65,0.37-0.68c0.38-0.03,0.49,0.31,0.5,0.6
						c0.18,3.96,1.23,7.78,1.93,11.65c0.07,0.37,0.23,0.9-0.31,1.09c-0.63,0.22-0.79-0.36-1.02-0.75
						C193.37,273.61,193.3,270.79,193.36,267.99z"/>
					<path class="st21" d="M238.24,59.64c1.46,3.97-0.76,11.06-3.95,12.28C236.61,68.05,237.2,63.97,238.24,59.64z"/>
					<path class="st22" d="M264.71,72.32c1.58-3.81,3.53-7.49,3.73-12.11C270.01,63.33,267.78,70.43,264.71,72.32z"/>
					<path class="st22" d="M309.09,86.96c-0.87,1.32-6.09,7.16-6.67,7.48C302.22,92.19,306.04,87.91,309.09,86.96z"/>
					<path class="st21" d="M289.84,79.32c-0.77-2.22,0.67-6,2.94-7.49C291.65,74.23,291.29,76.92,289.84,79.32z"/>
					<path class="st9" d="M213.6,191.31c-0.97-0.14-2.1-0.27-3.21-0.46c-0.31-0.05-0.81-0.03-0.78-0.54
						c0.02-0.43,0.44-0.56,0.78-0.61c1.72-0.24,3.43-0.49,5.15-0.66c6.09-0.61,11.59-2.72,16.58-6.25c0.33-0.23,0.7-0.93,1.16-0.39
						c0.44,0.52-0.26,0.82-0.56,1.12C227.55,188.92,220.88,190.64,213.6,191.31z"/>
					<path class="st9" d="M91.89,173.77c2.52,1.75,5.01,3.37,7.74,4.58c1.8,0.8,3.64,1.52,5.46,2.27c1.11,0.46,2.22,0.91,3.18,1.64
						c0.31,0.24,0.84,0.42,0.67,0.94c-0.19,0.57-0.72,0.27-1.09,0.24c-0.53-0.04-1.08-0.14-1.58-0.34
						c-5.14-2.04-10.05-4.48-14.15-8.3C91.92,174.62,91.63,174.44,91.89,173.77z"/>
					<path class="st21" d="M296.48,238.8c0.29,0.1,0.5,0.11,0.56,0.21c2.18,3.51,3.64,7.27,3.82,11.44
						c0.03,0.57,0.35,1.56-0.52,1.63c-0.75,0.06-0.81-0.94-0.94-1.54c-0.43-1.99-0.68-4.02-1.17-5.99
						C297.77,242.66,297.1,240.81,296.48,238.8z"/>
					<path class="st21" d="M310.5,305.52c3.5-1.28,7.01-2.55,10.5-3.84c0.37-0.13,0.74-0.21,0.97,0.14c0.32,0.47-0.08,0.77-0.4,1.04
						c-1.18,1.02-2.63,1.43-4.09,1.76c-2.26,0.52-4.55,0.91-6.83,1.36C310.61,305.83,310.55,305.68,310.5,305.52z"/>
					<path class="st23" d="M322.45,299.28c-2.25,1.69-4.5,1.95-6.86,2.72C317.21,300.71,320.51,299.34,322.45,299.28z"/>
					<path class="st13" d="M218.25,260.4c-0.15,1.13-0.71,1.93-1.91,1.96c-1.2,0.03-1.94-0.74-1.97-1.88
						c-0.03-1.14,0.71-1.94,1.88-1.98C217.44,258.46,218.04,259.27,218.25,260.4z"/>
					<path class="st13" d="M223.19,222.85c-1.22-0.17-1.88-0.87-1.83-2.03c0.04-1.17,0.78-1.92,1.95-1.86
						c1.14,0.06,1.87,0.81,1.81,2C225.07,222.14,224.31,222.73,223.19,222.85z"/>
					<path class="st13" d="M213.33,308.08c-1.2-0.18-1.91-0.89-1.85-2.06c0.06-1.08,0.79-1.83,1.88-1.82
						c1.15,0.02,1.93,0.73,1.91,1.95C215.26,307.37,214.49,307.96,213.33,308.08z"/>
					<path class="st15" d="M252.9,135.68c-0.36,0.03-1.25,0.16-2.14,0.18c-0.57,0.01-1.38,0.43-1.67-0.08
						c-0.36-0.61,0.16-1.38,0.47-1.99c1.51-2.91,7.8-4.03,10.28-1.9c0.66,0.56,0.18,0.72-0.2,1.02
						C258.34,133.95,255.63,135.13,252.9,135.68z"/>
					<path class="st10" d="M244.8,125.14c5.63,1.31,11.1,2.1,16.72,1.16C256.85,129.76,246.27,129.19,244.8,125.14z"/>
					<path class="st24" d="M116.93,173.64c1.05-2.88,2.02-5.74,3.03-8.53c2.09,0.66,3.47,1.13,4.38,1.44
						c-0.83,2.78-1.69,5.76-2.69,8.96c-0.52,1.3-1.99,1.94-3.3,1.43C117.05,176.42,116.41,174.95,116.93,173.64L116.93,173.64z
						 M122.43,158.75c3.79-8.92,8.94-16.6,19.69-21.05c4.3-1.78,4.37-1.47,9.09-2.07l-4.32,2.05
						c-12.52,6.08-17.08,12.98-20.42,22.29L122.43,158.75z"/>
					<path class="st14" d="M237.34,102.8c-0.18-0.03-0.34-0.06-0.47-0.1c-1.78-0.53-1.5-0.67-2.62-2.88
						c-0.72,0.51-1.44,1.04-2.15,1.56c0.43-1.56,1.7-2.33,2.73-3.56c-0.59,0.1-1.06,0.17-1.46,0.24c-0.24-0.13-0.23-0.2-0.09-0.29
						c1.13-0.75,2.41-1.04,3.74-1.09c1.74-0.06,3.48-0.12,5.21-0.06c3.5,0.13,4.64,0.99,5.79,4.21c0.32,0.9-0.87,2.67-1.79,2.67
						c-0.25,0-0.5-0.02-0.58-0.3c-0.06-0.2-0.04-0.39,0.04-0.56c-0.32,0.02-0.92,0.07-1.68,0.12c-0.19,0.07-0.44,0.13-0.59,0.17
						c-1.71,0.39-3.44,0.52-5.17,0.17C237.88,103.04,237.45,103,237.34,102.8L237.34,102.8z M243.68,92.96
						c-1.57,0.09-3.11-0.15-4.63-0.46c-2.96-0.59-5.74-0.66-8.02,2.58c0.12-1.08,0.29-1.98,0.52-2.74c0.82-2.72,2.43-3.49,5.78-3.27
						c2.67,0.18,5.33,0.7,8,0.97c0.38,0.04,0.57,0.14,0.67,0.29c0.12,0.19,0.07,0.47,0,0.78C245.73,92.35,244.88,92.89,243.68,92.96
						L243.68,92.96z M249.09,90.13c-1.13-4.39-1.71-9.81-0.67-13.47c-5.04,0.15-10.12,0.75-15.22,1.66
						c-0.96,0.17-1.56,0.72-1.71,1.8c-0.27,1.9-0.76,3.77-0.97,5.67c-0.26,2.31-0.48,4.62-0.73,6.92
						c-0.46,4.37-0.97,8.72-1.88,13.03c-0.74,3.54-1.48,7.09-0.93,10.71c1.45,9.63,3.86,19.02,7.26,28.15
						c0.77,2.06,1.51,4.19,3.12,5.82c1.44,1.45,3.33,2.64,5.45,3.5c-0.16-1.59-0.16-3.8,0.36-6.66c0.42-2.31,1.35-3.54,2.26-4.2
						c-0.64-0.45-1.17-1.09-1.62-1.95c-1.87-1.01-2.94-2.4-2.94-3.45c0-0.63,0.63-1.21,1.36-1.82c0.05-0.31,0.28-0.66,0.7-1.09
						c0.78-0.81,1.28-1.64,1.45-2.54c-0.02-0.61-0.07-1.33-0.18-2.1c-0.06-0.18-0.13-0.37-0.22-0.56c-0.68-1.52-1.21-3.12-1.79-4.68
						c-0.11-0.3-0.29-0.6-0.38-0.9c-1.73-2.87-0.2-3.61,0.96-3.61c1.22,0,3.92,1.08,7.44,1.35c2.81,0.22,7.1-3.64,8.7-5.19
						c-0.01-0.2-0.04-0.41-0.07-0.61c-2.19,0.04-8.93,0.12-12.41-0.56c-0.33-0.06-0.62-0.15-0.87-0.24
						c0.14,0.67,0.44,1.34,0.84,2.03c0.35,0.59,0.71,1.18,0.94,1.85c-1.79-1.31-3.13-2.93-3.77-5.11c-1.23,1.46-0.27,2.65,0.58,3.87
						c-1.63-0.35-2.51-1.81-1.97-3.39c0.23-0.66,0.6-1.33,1.07-1.85c3.48-3.78,4.67-8.67,6.33-13.3c0.7-1.95-0.19-4.14-0.45-6.21
						c-0.06-0.47-0.16-0.93-0.14-1.43c0.78,1.08,0.86,2.46,1.52,3.58c-0.08-0.64-0.21-1.26-0.42-1.83
						C249.72,92.35,249.39,91.28,249.09,90.13L249.09,90.13z M234.91,129c0.3,0.84,0.71,1.64,0.7,2.56c0,0.37-0.06,0.75-0.49,0.84
						c-0.46,0.09-0.87-0.09-0.97-0.56c-0.18-0.87-0.29-1.76-0.41-2.52c0.15-0.54-0.32-1.2,0.39-1.32
						C234.78,127.9,234.76,128.58,234.91,129L234.91,129z M253.66,118.75c0.47-2,1.31-2.24,2.85-0.91
						C255.56,118.14,254.64,118.43,253.66,118.75L253.66,118.75z M236.11,145.37c0.98,2.73,3.51,4.12,5.19,6.25
						C238.35,150.62,236.36,148.21,236.11,145.37z"/>
					<path class="st11" d="M275.03,237.85c5.38-2.37,2.31,2.04,0.33,2.67c-0.48,0.15-0.96,0.31-1.45,0.46
						c-0.23,0.79-0.33,1.78-0.04,3.03c0.44,1.96,1.06,3.12,1.6,3.8c0.28-0.09,0.55-0.18,0.79-0.26c5.05-1.58,4.08,0.9,2.01,1.65
						c-0.62,0.23-1.34,0.48-2.11,0.73c-0.42,1.44-0.84,3.85,0.42,5.29c0.77,0.88,1.41,1.47,1.89,1.86c1.11-0.31,2.22-0.66,3.32-0.99
						c0.35,1.91-0.11,2.44-2.1,2.68c0.31,1.33,1.34,3.6,4.73,4.16c4.87,0.81,16.23-5.68,16.23-5.68l3.6-6.58
						c-1.17-6.07-3.18-11.81-6.49-17.11c-3.08-4.94-5.37-10.29-7.47-15.72c-0.95-2.48-1.22-4.95-0.76-7.58
						c0.24-1.41,0.75-2.85,0.37-4.44c-3.99,1.24-6.61,3.63-7.35,7.71c-0.66,3.69-0.48,7.41-0.01,11.12
						c0.11,0.89,0.58,1.11,1.38,1.25c1.92,0.33,3.77,0.87,5.19,2.38c-0.47,0.46-0.79,0.18-1.12,0.1c-3.46-0.85-6.93-0.72-10.32,0.28
						c-1.54,0.46-3.08,0.94-4.61,1.44c-0.85,3.6,0.88,7.02,1.89,7.69C274.98,237.81,275.01,237.83,275.03,237.85L275.03,237.85z
						 M298.24,244.55c-0.46-1.89-1.13-3.74-1.76-5.75c0.29,0.1,0.5,0.11,0.56,0.21c2.18,3.51,3.64,7.27,3.82,11.44
						c0.03,0.57,0.35,1.56-0.52,1.63c-0.75,0.06-0.81-0.94-0.94-1.54C298.97,248.55,298.72,246.53,298.24,244.55z"/>
					<path class="st14" d="M287.26,217.1c-0.9-3.47-0.22-7.12,1.35-10.81c-3.27,1.34-5.41,3.63-6.06,7.24
						c-0.66,3.69-0.48,7.41-0.01,11.12c0.11,0.89,0.58,1.11,1.38,1.25c1.66,0.29,3.27,0.73,4.59,1.82
						C288.35,224.87,287.99,219.95,287.26,217.1z"/>
					<path class="st13" d="M295.33,307.41c-2.08-1-10.02,11.02-9.93,10.6c1.71-8.44,8-12.94,8.38-21.52
						c0.27-6.11-2.29-14.92-0.91-25.1c-0.07-0.81,0.06-1.76-1.27-1.7c-2.21,0.1-4.36,0.84-6.6,0.69c-0.36-0.03-0.5,0.31-0.63,0.57
						c-0.94,1.9-2.6,2.17-4.44,1.86c-1.83-0.31-3.67-0.64-5.45-1.15c-1.92-0.54-3.36-1.07-4.42-1.74c0.58,4.21,3.43,5.7,8.27,7.08
						c7.57,2.16,7.57,3.51,7.57,3.51l-0.81,23.53l-13.52,23.53l-0.35,1.51l-0.14,0.6c2.95-0.25,29.61-3.92,30.09-5.92
						C301.28,323.3,297.63,308.51,295.33,307.41z"/>
					<path class="st13" d="M359.29,270.39c-8.07,3.44-18.64,4.14-29.51,4c0.46,4.08,0.75,8.17,0.53,12.25
						c-0.08,1.49,0.48,1.97,1.79,2.24c2.6,0.54,2.98,0.34,5.5-0.3c4.78-1.21,9.17-3.09,13.2-5.56c4.19-2.56,8-5.76,11.48-9.49
						c2.51-2.7,4.49-5.65,5.61-8.99C365.56,267.06,362.64,268.96,359.29,270.39z"/>
					<path class="st13" d="M307.19,205c-1.11,3.97-0.87,8.04-0.82,12.08c0.27-0.9,0.43-1.83,0.65-2.74
						c1.31-5.59,3.45-10.8,6.27-15.69L307.19,205z"/>
					<path class="st13" d="M304.94,211.75c0.67-1.73,0.72-3.41,0.91-5.06c0.01-0.12,0.03-0.23,0.04-0.34l-1.39,1.45
						C304.64,209.08,304.79,210.39,304.94,211.75z"/>
					<path class="st13" d="M303.05,221.74c-0.23-4.22-0.12-8.45,0.44-12.68c-0.95,1.68-4.28,7.5-7.91,13.21
						c1.05,2.1,2.07,3.96,3.34,6.4c0.45,0.87,0.89,1.78,1.65,2.47C302.91,227.82,303.27,225.79,303.05,221.74z"/>
					<path class="st13" d="M323.38,72.24c-1.35,0.05-2.78,0.12-4.55-0.43c2.41-1.13,4.53-1.55,6.75-1.52
						c0.68,0.01,1.19,0.02,1.61-0.75c5.25-9.66,4.86-20.68-3.72-28.23c-2.12-1.87-4.35-3.28-6.69-4.2
						c5.77,17.1,3.85,28.35-1.59,30.48c-1.93,0.76-3.76,1.25-5.36,1.57c0.33,1.19,0.7,2.35,1.1,3.51
						c1.79,5.17,3.74,10.27,7.48,14.42c2.51,2.78,5.46,4.09,9.33,2.22c1.06,6.72-0.84,11.8-7.05,14.91
						c0.71,0.02,1.34-0.04,1.94-0.21c10.72-3.02,15.9-18.48,9.15-27.35C329.68,73.93,327.08,72.1,323.38,72.24L323.38,72.24z
						 M326.6,65.69c-0.2,0.52-0.41,1.4-1.08,1.25c-0.84-0.2-0.55-1.12-0.42-1.69c0.73-3.08,1.62-6.12,1.76-9.33
						c0.11-2.52-0.05-4.98-1-7.35c2.49,2.8,2.65,6.16,2.31,9.6C327.92,60.72,327.52,63.27,326.6,65.69z"/>
					<path class="st13" d="M295.83,69.27c3.64,3.44,4.54,5.93,2.86,10.21c-1.48,3.78-4.06,7.46-5.85,9.77
						c0.57,0.48,1.13,0.98,1.69,1.49c2.85,2.59,5.4,5.47,8,8.31c-1.89-4.07-4.85-7.34-7.8-10.64c2.27,1.23,4.29,2.73,5.83,4.73
						c1.55,2,2.94,4.12,4.49,6.32c1.89-4.21,3.67-8.26,5.53-12.27c0.35-0.75,0.12-1.2-0.25-1.77
						C306.17,79.02,301.27,73.63,295.83,69.27L295.83,69.27z M302.42,94.44c-0.2-2.25,3.62-6.53,6.67-7.48
						C308.21,88.28,303,94.13,302.42,94.44z"/>
					<path class="st10" d="M185.91,161.16c0-8.36-1.6-16.12-14.72-28.94c-2.2-0.31-4.41-0.52-6.64-0.63
						c-4-0.19-8.06-0.06-12.17,0.43c-7.58,0.9-15.05,2.3-22.04,5.56c-3.37,1.57-6.32,3.62-8.22,6.97
						c-2.49,4.38-3.72,7.35-5.81,11.93c-0.44,0.96-0.43,1.36,0.69,1.77c11.04,4,18.91,6.49,26.6,8.06
						c9.96,2.03,19.64,2.52,35.57,2.75c1.86-0.02,3.74-0.05,5.63-0.09C185.39,167.75,185.91,165.46,185.91,161.16L185.91,161.16z
						 M146.88,137.68c-12.52,6.08-17.08,12.98-20.42,22.29l-4.03-1.22c3.79-8.92,8.94-16.6,19.69-21.05
						c4.3-1.78,4.37-1.47,9.09-2.07L146.88,137.68z"/>
					<path class="st10" d="M164.27,170.7c-7.25-0.35-14.45-0.96-21.56-2.01c-9.48-1.41-18.81-3.63-27.89-7.14
						c-0.9-0.35-1.16,0.04-1.42,0.73c-0.98,2.64-2,5.26-2.94,7.91c-1.14,3.2-0.97,3.63,1.97,5.51c0.55,0.35,1.13,0.67,1.72,0.97
						c4.14,2.12,8.6,3.33,13.1,4.3c3.72,0.81,7.45,1.51,11.2,2.11c14.55,2.36,29.25,3.27,44.04,3.32c0.04,0,0.09,0,0.13,0
						c0.16-1.08,0.45-2.97,0.89-6.05c0.61-4.26,0.15-7.77-0.11-9.25C177,171.18,170.64,171,164.27,170.7L164.27,170.7z
						 M124.34,166.56c-0.83,2.78-1.69,5.76-2.69,8.96c-0.52,1.3-1.99,1.94-3.3,1.43c-1.3-0.52-1.94-1.99-1.42-3.3
						c1.05-2.88,2.02-5.74,3.03-8.53C122.05,165.78,123.43,166.24,124.34,166.56z"/>
					<path class="st10" d="M92.59,166.67c0.61,7.25,13.25,14.94,44.98,20.46c1.55,0.27,3.16,0.54,4.8,0.8
						c40.59,6.41,81.19,3.03,92.7-9.24c-0.24-0.23-0.48-0.45-0.73-0.66c-4.77-3.94-10.48-5.51-16.48-7.66
						c0.69,3.26,1.18,6.21,1.97,9.08c0.56,2.03-0.13,3.37-1.67,4.5c-1.83,1.34-3.94,2.01-6.11,2.53
						c-8.34,2.01-16.86,2.37-25.37,2.49c-16.11,0.22-32.14-0.84-48.07-3.26c-0.24-0.04-0.48-0.07-0.72-0.11
						c-7.41-1.16-15.76-2.95-22.74-5.62c-2.7-1.03-5.31-2.22-7.37-4.34c-1.26-1.3-1.79-2.69-1.05-4.55
						c1.23-3.08,2.25-6.25,3.42-9.54c-5.14,0.81-8.93,1.77-13.69,3.49C95.14,165.51,93.83,166.03,92.59,166.67z"/>
					<path class="st13" d="M209.5,208.2c0.74-1.57,1.41-3.17,2.07-4.78c1.2-2.89,2.81-5.57,4.7-8.42
						c-7.64,1.37-15.04,1.81-22.23,2.25c1.32,13.33,3.44,26.5,0.18,39.75c2.5-3.86,4.13-8.17,6.47-12.42
						c0.42,0.91,0.16,1.41,0.05,1.92c-0.94,4.38-2.77,8.4-5,12.26c-0.33,0.57-0.64,1.11-0.77,1.79c-1.05,5.47-2.09,10.95-3.27,16.4
						c-1.44,6.62-0.96,13.09,1.06,19.5c1.37,4.36,2.6,8.74,2.48,13.38c-0.09,3.35-1.07,6.42-2.9,9.24c0.87-3.18,1.58-6.36,1.23-9.7
						c-0.34-3.25-0.93-6.43-2.28-9.87c-1.34,8.48-4.98,23.83-8.53,31.07c2.73-0.3,4.21-0.18,7.83-0.61
						c3.89-15.18,6.06-28.98,5.62-32.72c-0.44-3.74-0.04-0.35-0.06-0.53c-0.06,0.08-0.15,0.14-0.27,0.18
						c-0.63,0.22-0.79-0.36-1.02-0.75c-1.47-2.53-1.54-5.35-1.47-8.15c0-1.25,0-2.5,0-3.76c0-0.28-0.05-0.65,0.37-0.68
						c0.38-0.03,0.49,0.31,0.5,0.6c0.15,3.29,0.9,6.48,1.55,9.68c-1.17-9.82-2.77-25.29,2.03-32.02c5.41-7.57,6.22-25.15,6.22-25.15
						s1.12,0.48,8.12,0.46c0.12-0.87,0.24-1.74,0.37-2.61c0.15-1.08-0.05-1.51-1.22-1.51c-1.13,0-2.26-0.22-3.39-0.37
						c-0.54-0.07-1.1-0.2-1.22-0.86c-0.11-0.6,0.09-1.1,0.72-1.26C208.63,210.2,209.05,209.16,209.5,208.2z"/>
					<path class="st13" d="M244.53,197.42c-3.37,4.81-7.21,9.14-12.3,12.22c-4.89,2.96-10.29,3.77-15.89,3.75
						c-0.87,0-1.56-0.09-1.72,1.18c-0.1,0.84-0.21,1.68-0.32,2.52c1.7-0.03,3.67-0.08,5.95-0.17c14.33-0.54,25.15-14.33,25.15-14.33
						s0,0,5.14,6.76c4.99,6.56,16.34,9.05,28.13,13.64c-0.04-0.62-0.13-1.38-0.25-2.32c-0.09-0.74-0.32-1.16-1.05-1.42
						c-5.29-1.93-8.8-4.28-14.21-5.88c-3.31-0.98-6.08-2.77-8.51-5.18c-3.65-3.61-6.37-7.88-8.93-12.48
						C245.27,196.36,244.9,196.9,244.53,197.42z"/>
					<path class="st13" d="M218.05,167.77c2.68,0.98,5.37,1.95,7.75,2.8c-1.23-1.32-2.59-2.84-4.03-4.28
						c-1.1-1.11-2.39-1.99-3.75-2.78c-0.59-0.34-1.27-0.59-1.72,0.08C215.94,164.14,217.45,167.55,218.05,167.77z"/>
					<path class="st14" d="M266.54,169.13c5.69-8.83,10.03-19.53,13.27-29.22c-6.19,9.24-13.43,17.58-22.13,24.71
						c-1.83,1.5-3.85,1.86-6.07,1.45c-3.18-0.58-6.04-1.92-8.66-3.78c-0.39-0.28-0.68-0.8-1.31-0.69c-0.12,4.64,2.55,8.19,4.5,11.99
						c0.54,1.06,1.93,1.2,3.05,1.25c1.08,0.05,0.76-1.17,1.16-1.76c0.59-0.87,0.61-2.11,1.71-2.76c0.41,1.68-0.31,3.12-0.54,4.72
						c3.58-0.22,6.91-0.64,9.86-2.69C263.05,171.19,264.78,170.13,266.54,169.13z"/>
					<path class="st14" d="M276.65,84.22c4.18,2.46,7.78,6.48,10.36,9.93c0.37,0.49,0.71,0.97,1.04,1.44
						c0.05-0.37,0.1-0.74,0.16-1.1c0.2-1.29,0.42-2.59,0.69-3.88c0.22-1.08,0.09-1.68-0.85-2.35c-3.29-2.32-6.71-4.4-10.38-6.07
						c-9.52-4.34-19.3-5.81-29.22-5.52c-0.07,0.25-0.14,0.51-0.19,0.77C258.93,76.7,269.19,79.84,276.65,84.22z"/>
					<path class="st14" d="M301.19,118.72c0.7,1.12,0.43,2.15-0.65,3.22c-0.15-1.11,0.08-2.25-0.99-2.79
						c-0.61-0.31-1.29-0.24-1.92,0.02c-0.89,0.37-1.34,0.69-0.46,1.74c1.39,1.66,1.01,3.6-0.58,4.49c1.64-0.11,3.38-0.95,4.76-1.99
						c-0.06-0.36,0.12-0.77,0.37-1.14c0.72-1.11,1.36-2.24,1.75-3.52c0.28-0.94,0.39-1.89,0.23-2.84c-0.36-2.22-2.22-3.08-4.14-1.92
						c-1.27,0.77-2.12,1.9-2.85,3.52C298.61,116.99,300.17,117.1,301.19,118.72z"/>
				</g>
				<path class="st13" d="M326.4,272.52c-1.87,1.4-8.16,2.34-16.57,2.1c0.67,11.35,0.02,22.77-2.37,34.32
					c4.93-1.15,9.52-2.24,14.11-3.29c0.74-0.17,1.06-0.63,1.31-1.3c0.89-2.36,1.74-4.74,2.1-7.23
					C326.18,288.95,326.48,280.74,326.4,272.52L326.4,272.52z M315.59,302.01c1.62-1.29,4.92-2.67,6.86-2.72
					C320.2,300.97,317.95,301.23,315.59,302.01L315.59,302.01z M310.5,305.52c3.5-1.28,7.01-2.55,10.5-3.84
					c0.37-0.13,0.74-0.21,0.97,0.14c0.32,0.47-0.08,0.77-0.4,1.04c-1.18,1.02-2.63,1.43-4.09,1.76c-2.26,0.52-4.55,0.91-6.83,1.36
					C310.61,305.83,310.55,305.68,310.5,305.52z"/>
			</g>
			<g>
				<path class="st25" d="M242.87,191.57c-11.63,3.32-20.25,11.21-29.69,18.15c1.27,0.32,2.24-0.09,3.21-0.24
					c6.33-0.99,12.53-2.28,17.02-7.5c1.17-1.36,2.58-2.51,3.8-3.84C239.12,196.03,241.2,194.05,242.87,191.57z"/>
				<path class="st25" d="M250.4,194.03c2.09,5.66,5.8,9.91,11.35,12.31c3.92,1.69,7.96,3.09,11.75,5.31
					c-2.28-2.88-4.47-5.84-6.87-8.62c-4.1-4.73-8.55-9.07-14.36-11.71c-0.49-0.22-1.09-0.84-1.6-0.32c-0.48,0.5-0.69,1.26-0.6,2
					C250.12,193.36,250.28,193.69,250.4,194.03z"/>
				<path class="st24" d="M111.45,178.67c-2.91-1.99-10.45-6.06-9.95-10.52c5.02,4.53,4.73,4.5,11.28,7.87
					c0.81,0.56,1.69,1.39,1.13,2.2C113.37,179.03,112.26,179.23,111.45,178.67z"/>
			</g>
		</g>
		<path class="st24" d="M219.59,224.37c5.6-1.7,5.15-1.34,9.4-4.39l-0.33,1.41C226.89,225.48,222.93,224.95,219.59,224.37z"/>
		<path class="st24" d="M212.56,264.4c5.6-1.7,5.15-1.34,9.4-4.39l-0.33,1.41C219.86,265.51,215.9,264.98,212.56,264.4z"/>
		<path class="st24" d="M209.85,310.1c5.6-1.7,5.15-1.34,9.4-4.39l-0.33,1.41C217.16,311.21,213.19,310.68,209.85,310.1z"/>
	</g>
</g>
</svg>
