<?xml version="1.0" encoding="utf-8"?>
<!-- Generator: Adobe Illustrator 25.2.0, SVG Export Plug-In . SVG Version: 6.00 Build 0)  -->
<svg version="1.1" id="OBJECTS" xmlns="http://www.w3.org/2000/svg" xmlns:xlink="http://www.w3.org/1999/xlink" x="0px" y="0px"
	 viewBox="0 0 500 243" style="enable-background:new 0 0 500 243;" xml:space="preserve">
<style type="text/css">
	.st0{fill:#C10016;}
	.st1{font-family:'ArialMT';}
	.st2{font-size:41.4917px;}
	.st3{letter-spacing:-3;}
	.st4{fill:#000005;}
	.st5{font-size:27.4253px;}
	.st6{letter-spacing:1.4;}
	.st7{fill-rule:evenodd;clip-rule:evenodd;fill:#DC9118;}
	.st8{fill-rule:evenodd;clip-rule:evenodd;fill:#000005;}
	.st9{fill-rule:evenodd;clip-rule:evenodd;fill:#FFFFFF;}
	.st10{fill-rule:evenodd;clip-rule:evenodd;fill:#EDCBAA;}
	.st11{fill-rule:evenodd;clip-rule:evenodd;fill:#AFB0B0;}
	.st12{fill-rule:evenodd;clip-rule:evenodd;fill:#C4C4C4;}
	.st13{fill-rule:evenodd;clip-rule:evenodd;fill:#D98B58;}
	.st14{fill:none;}
	.st15{font-size:9.2054px;}
	.st16{fill-rule:evenodd;clip-rule:evenodd;fill:#C10016;}
	.st17{fill-rule:evenodd;clip-rule:evenodd;fill:#000006;}
	.st18{fill-rule:evenodd;clip-rule:evenodd;fill:#000508;}
	.st19{fill-rule:evenodd;clip-rule:evenodd;fill:#020307;}
	.st20{fill-rule:evenodd;clip-rule:evenodd;fill:#121212;}
	.st21{fill-rule:evenodd;clip-rule:evenodd;fill:#171717;}
	.st22{fill-rule:evenodd;clip-rule:evenodd;fill:#000004;}
	.st23{fill-rule:evenodd;clip-rule:evenodd;fill:#000003;}
	.st24{fill-rule:evenodd;clip-rule:evenodd;fill:#242626;}
	.st25{fill-rule:evenodd;clip-rule:evenodd;fill:#20201E;}
	.st26{fill-rule:evenodd;clip-rule:evenodd;fill:#911B19;}
</style>
<g>
	<text transform="matrix(1.0148 0 0 1 228.1622 130.9257)" class="st0 st1 st2 st3">P</text>
	<text transform="matrix(1.0148 0 0 1 247.1944 130.9257)" class="st0 st1 st2 st3">ranav’s Cuisine</text>
	<text transform="matrix(0.7297 0 0 1 258.8907 169.6874)" class="st4 st1 st5 st6">F</text>
	<text transform="matrix(0.7297 0 0 1 271.838 169.6874)" class="st4 st1 st5 st6">lavors of royalty.</text>
	<g>
		<ellipse class="st7" cx="134" cy="146.6" rx="92.3" ry="91"/>
		<g>
			<g>
				<g>
					<path class="st8" d="M112,50.9c-3.1-2.1-5.9-4.3-8.3-7.1c-3.7-4.3-5.9-9.2-5.5-15c0.6-8.4,8.3-15.9,16.5-15.6
						c2.5,0.1,3.7-0.5,5.2-2.4c3.6-4.5,8.6-6.8,14.1-8.1c7.9-1.9,15.7-1.7,23.3,1.7c5.4,2.4,9.3,6.3,11.4,11.9
						c0.3,0.7,0.5,1.1,1.4,0.8c10.3-3.1,21.5,3.6,23.5,14.1c0.8,4.4,0.2,8.7-1.7,12.8c-0.5,1.1-0.5,1.6,0.6,2.5
						c2.8,2.3,4.4,5.5,4.6,9.1c0.5,6.2-1.4,11.5-6.4,15.4c-4.6,3.6-9.9,3.4-15.1,1.4c-0.9-0.3-1.8-0.8-2.7-1.2
						c-0.3-0.1-0.6-0.6-1-0.1c-0.4,0.6-0.9,1.2-1.1,1.9c0,0.1,0.4,0.3,0.6,0.3c4.6,1,6.9,6,5,11c-1.2,3-3.4,5.1-6.2,6.7
						c-1.7,1-3.6,1.8-5.5,2.3c-1.1,0.3-2.3,0.6-3.4,0.2c-0.7-0.2-1-0.1-1.1,0.7c-0.2,1.7-0.5,3.5-0.8,5.2c-0.1,0.6,0.1,0.9,0.7,1
						c1.6,0.4,3.2,1,4.8,1.5c1.1,0.3,1.6,0.9,1.8,2c0.5,2.9,1.1,5.7,1.6,8.5c0.1,0.8,0.5,1,1.2,1.2c8.3,2.3,16.6,4.6,24.9,6.9
						c1.8,0.5,3,1.4,3.8,3c1.4,2.7,2.5,5.6,3.5,8.4c2.5,6.4,4.6,13,7.8,19.2c0.6,1.2,1.3,2.3,2.1,3.4c0.5,0.8,1.2,1.5,2.1,1.9
						c3.3,1.4,5.4,3.8,5.2,7.5c-0.2,4,1,7.6,2.8,11.1c0.9,1.9,1.5,3.9,2.4,5.9c2.7,6.4,1.4,12.5-1.7,18.3
						c-3.3,6.2-8.6,10.5-14.7,14.1c-5.1,3-10.6,5.3-16.3,7.1c-1,0.3-1.6,0.8-1.7,1.8c0,0.1,0,0.2-0.1,0.3c-1.5,5.5-1.6,5.5-7.2,6.8
						c-3.4,0.8-6.9,1.7-10.4,2.4c-3.9,0.9-0.2,11.8-1.7,13.7c-0.2,0.3-2.1-8.4-2.6-8.2c-9.8,3.4-19.7,7.1-30.6,7.1
						c-16.1,0-31.3-4-44.6-11.1c-0.3-0.2-0.5,2.6-0.8,2.4c-0.3-0.1-0.7-3.3-1-3.4c-4.1-2.3-8-4.9-11.6-7.8c-0.6-0.5-3,5.9-3.6,5.4
						c1-9,3.1-17.2,4.4-26.1c0.2-1.7,0.2-3.3-0.2-4.9c-0.9-4.6-0.1-9,0.7-13.4c0.3-1.4,0.5-2.7,0.8-4.4c-2.2,2.4-4.2,4.6-6.3,6.7
						c-5.8,5.7-12.5,10.1-20,13.5c-3.5,1.6-6.7,1.2-9.7-1.2c-5.8-4.6-10.4-10.1-13.7-16.7c-1.6-3.3-1.3-6.6-0.5-10
						c0.9-4,2.4-7.8,4.2-11.5c0.3-0.6,0.3-1-0.1-1.6c-1.4-2.1-2.7-4.3-3.2-6.8c-0.3-1.4-0.1-2.6,0.6-3.9c1.3-2.7,3.1-5.1,4.9-7.6
						c0.3-0.4,0.6-0.8,0.9-1.3c-3.6-0.6-7.1-1.1-10.5-1.8c-7.3-1.4-14.5-3.3-21-6.8c-2.3-1.2-4.4-2.6-6-4.7
						c-2.3-2.8-2.1-5.7,0.5-8.3c2.6-2.5,5.8-3.7,9.2-4.8c3-1,6-1.7,9.1-2.2c0.8-0.1,1.1-0.4,1.4-1.1c1.7-3.5,3.6-7,5.5-10.4
						c1.6-3,4.1-5,7.1-6.3c5.9-2.6,12.1-3.9,18.5-4.7C54,89.3,56,89.1,58,89c0.6,0,0.8-0.2,0.9-0.9c0.3-4.1,3.3-6.8,7.2-6.4
						c3.7,0.3,6.2,3.6,5.7,7.5c-0.1,1,0.2,1.1,1.1,1.3c5.9,1.3,11.6,3.2,16.8,6.2c2.4,1.4,4.6,3,6.7,4.8c2.7,2.3,4.3,5.3,5.2,8.7
						c0.2,0.9,0.6,1.8,0.8,2.8c0.1,0.6,0.5,0.7,1,0.6c2.1-0.5,4.3-0.9,6.4-1.4c0.5-0.1,0.8-0.3,0.6-0.8c-0.4-0.9,0.2-1.3,0.9-1.7
						c1.3-0.9,2.6-1.8,3.9-2.7c0.5-0.3,0.6-0.6,0.3-1.2c-3.7-8.3-5.9-17-7.1-25.9c-0.5-3.3,0.6-6.6,1.2-9.8c0.1-0.8,0.1-1.5-0.1-2.3
						c-0.7-2.5-1.2-5-1.8-7.5c-0.8-3.4,0.4-5.9,2.9-8.1C111.1,51.8,111.5,51.4,112,50.9z"/>
					<path class="st9" d="M125.6,141.4c2,3.5,4.1,6.8,7,9.6c1.9,1.8,4,3.2,6.6,4c4.2,1.2,6.9,3,11.1,4.5c0.6,0.2,0.7,0.5,0.8,1.1
						c0.5,3.7,0.5,3.6-3.1,4.8c-3.1,1-4.9,2-8.1,2.9c-1.7,0.5-2.6,1.7-2.8,3.3c-0.3,2.1,0,4.1,1.5,5.7c0.4,0.4,0.3,0.8,0.2,1.2
						c-0.7,2.5-0.4,4.8,1.8,6.5c0.5,0.4,0.5,0.7,0.4,1.2c-0.3,1.6,0,2.9,1.4,3.9c0.5,0.4,0.8,0.8,0.5,1.4c-0.1,0.2,0,0.4-0.1,0.5
						c-0.5,5.1,0.4,6.3,5.3,7.7c1.4,0.4,2.8,0.6,4.2,0.9c1.4,0.2,2.7,0,3.5-1.4c0.1-0.2,0.2-0.5,0.5-0.4c1.7,0.1,3.4-0.5,5.1-0.5
						c1,0,0.9,0.7,1,1.3c-1.1,7.8,0.9,14.6,0.7,19.3c-0.3,6.6-5.2,10-6.5,16.5c-0.1,0.3,6.1-8.9,7.7-8.1c1.8,0.8,3.9,8.8,3.8,9.1
						c-0.4,1.5-1.9,3-3.9,4.5c-8.5,2.5-17.4,3.8-26.7,3.8c-16.2,0-31.5-4.1-44.8-11.2c0.3-6.4,0.6-12.7,1-19.1
						c0.3-4.7,1.2-9.4,1.8-14.1c1.3-9.9,2.7-19.8,4.1-29.7c0.7-4.8,1.3-9.7,2-14.5c0.1-1,0.7-0.9,1.3-0.9c4.4,0,8.6-0.6,12.4-2.9
						c4-2.4,7-5.7,9.6-9.4C124.9,142.3,125.2,141.9,125.6,141.4z"/>
					<path class="st9" d="M192.5,123.5c-5.1,4.9-7.2,7.7-8.1,11.1c0.8-1,1.4-1.8,1.9-2.5c2-2.6,4.1-5.2,6.7-7.2
						c1.5-1.1,1.6-1.1,2.5,0.6c1.7,3.5,3,7.1,4.3,10.7c2.4,6.4,4.7,12.9,8.2,18.9c-1.8-0.7-2.8-1.9-6.8-7.9c0.7,2.8,2,5.3,4,7.5
						s4.6,3.5,7.2,4.7c2.3,1.1,3.6,2.5,3.5,5.2c-0.1,2.2,0,4.4,0.6,6.6c1.2,4.5,1.2,9.4,3.3,13.7c0.1,0.3,0.1,0.6,0.2,1
						c0.5-1.6,0.2-3-0.1-4.5c-0.3-1.4-0.6-2.9-0.7-4.4c0.5,1.2,1.2,2.4,1.4,3.7c0.6,2.9,0.9,5.9,0.8,8.9c0,4.5-2.1,8.2-5.1,11.5
						c-5.3,5.6-11.6,9.6-19.2,11.5c-2,0.5-2.3,0.6-4.3,0.2c-1-0.2-1.5-0.6-1.4-1.7c0.4-7-1.2-14.1-1.9-21.1c-0.4-3.9-1.5-7.5-3-11
						c-0.2-0.4-0.4-0.8-0.6-1.3c3.7-0.2,7.1-0.9,10.6-1.5c6.3-1.1,11.6,1,16.4,4.7c0.2,0.1,0.4,0.3,0.8,0.7c-0.6-1.4-1.3-2.2-2.2-3
						c-1.3-1.2-2.9-2-4.5-2.7c-0.6-0.3-1-0.6-1.1-1.3c-0.1-1.7,1.5-3.6,3.1-3.8c1.3-0.2,2.6-0.2,4.2-0.2c-1.1-0.9-2-0.8-2.9-0.8
						c-3.2-0.1-6.1,1-9,2.2c-4.3,1.8-8.7,2-13.1,0.5c-2-0.7-3.3-2.2-4.4-3.9c-6.2-8.9-6.9-18.2-2.7-28.1c0.1-0.2,0.2-0.4,0.3-0.6
						c0.1-0.2,0.4-0.5,0-0.7s-0.5,0.2-0.6,0.4c-3.5,4.9-6.2,10.3-7.6,16.2c-0.2,0.7-0.3,1.4-0.5,2.1c-0.1-3.8-0.3-7.6,1.4-11.3
						c-1.1,0.6-1.6,1.5-1.8,3.3c-0.1,1.3-0.2,2.5-0.7,3.9c-0.2-1.8-0.4-3.5-0.6-5.2c-0.9,4.3-1.1,8.6-0.9,12.9
						c0.2,3.1-0.1,4.7-1.9,7.2c-0.6-0.5-0.9-1.2-1.3-1.9c-1.4-2.7-2.5-4.5-3.8-7.3c-1.2-2.7-2.3-5.2-1.7-8.1
						c0.3-1.2,0.8-2.7-0.4-3.5c-1.2-0.9-2.6,0-3.8,0.6c-2.5,1.3-4.1,3.3-4.8,6.2c-0.9-3.1-1.7-6-2.8-8.8c-1-2.5-2.2-4.8-3.9-7
						c-1.3-1.7-0.5-6.1,1.4-7.6c1.8-1.4,3.8-2.5,5.8-3.6c4-2.3,8-4.5,11.7-7.2c1.2-0.9,2.4-1.8,3.1-3.1c0.2-0.4,0.4-0.5,0.9-0.4
						C176.7,119.1,184.6,121.3,192.5,123.5z"/>
					<path class="st10" d="M155.1,93.8c-4.8,4-9.4,8.2-14.4,11.8c-1.5,1.1-3.2,2.1-4.8,3.1c-4.8,3.2-13,1.7-16.9-2.1
						c-1.3-1.2-1.8-2.9-2.4-4.5c-2.6-7-4.5-14.2-5.7-21.6c-0.4-2.8,0.1-5.5,0.7-8.2c1.1-5,1.4-10.2,2-15.3c0.2-1.5,0.6-2.9,0.8-4.3
						c0.1-0.8,0.6-1.2,1.3-1.4c11.8-2.1,23.4-2,34.6,3c2.9,1.3,5.5,2.9,8.1,4.7c0.7,0.5,0.8,1,0.7,1.8c-1.3,6.4-1.6,12.9-0.5,19.3
						c0.3,2,0.7,2,2.2,0.7c1.7-1.4,3-3.3,4.6-4.8c0.5-0.4,1-0.8,1.5-1.3c0.4-0.4,0.8-0.5,1.1,0.2c0.2,0.5,0.8,0.7,1.3,0.6
						c3.6-0.3,6.3,3.2,5,7.3c-0.7,2.2-2.2,3.8-4,5.2c-2.1,1.6-4.5,2.5-7.1,3.2c-1.1,0.3-2.1-0.2-3-0.8c-1.2-0.8-2.1-0.3-2.2,1.1
						c-0.2,4.2-1.3,8.3-1.8,12.4c-0.2,1.7-0.7,3.3-0.3,5.1c0.1,0.5-0.3,0.7-0.6,1c-2.2,2.6-4.8,4.8-7.6,6.7
						c2.6-4.8,4.2-9.9,5.7-15.2c-0.7,0.7-0.9,1.7-1.3,2.6c-1.7,4.2-3.2,8.5-5.8,12.4c-1.1,1.6-2.4,3-4.1,4c-1.5,0.9-3.1,1.8-4.5,2.8
						c-2.3,1.6-4.9,1.9-7.7,2.1c0.2-1.2,0.7-2.3,0.4-3.6c-0.9,0.5-0.9,1.4-1.3,2.1c-0.3,0.5-0.1,1.4-0.9,1.4c-0.9,0-2-0.1-2.4-1
						c-1.5-2.9-3.6-5.6-3.5-9.2c0.5-0.1,0.7,0.3,1,0.5c2,1.4,4.3,2.5,6.7,2.9c1.7,0.3,3.3,0,4.7-1.1
						C143.1,110.9,149.7,102.8,155.1,93.8z"/>
					<g>
						<path class="st9" d="M116.6,67.7c0.9,1.8,0.7,1.9,2.1,2.3c1.4,0.4,7.1-0.1,7.1-0.1s1-0.6,0.9-0.9c-0.1-0.4-1.5-2.8-1.5-2.8
							l-6.7-0.2C118.3,66.1,117.9,66.6,116.6,67.7z"/>
						<path class="st9" d="M138.9,69.1c0.8,1.5,2.9,2.4,2.9,2.4h6.6l2.7-1.5c0,0-2.3-2.1-3.5-2.6s-6.2-0.7-6.8-0.6
							C140.1,67,138.9,69.1,138.9,69.1z"/>
					</g>
					<path class="st9" d="M189.4,59.8c-3,1.4-5.3,0.4-7.3-1.7c-2.9-3.2-4.4-7.1-5.8-11.1c-0.8-2.4-1.5-4.8-2-7.5c-0.7,1-1.2,2-2,2.7
						c-1.3,1.1-2.5,1-3.6-0.2c-1.4-1.6-1.3-3.5-0.9-5.4c0.4-2.3,0.2-2.5-2-2c-3.7,0.8-7.2,0-10.8-0.8c-7.9-1.7-11.4-7-12.8-14.3
						c-0.2-0.9-0.3-1.8-0.5-3c-2.2,3.7-3.9,7.3-5.4,11c-0.6,1.5-1.5,2.7-2.8,3.7c-1.7,1.3-3.7,0.7-5.8,1.2c2.4-2.7,3.3-5.8,4.1-9
						c-0.8,0.1-0.8,0.7-1,1c-1.9,4.6-5.5,7.3-10.2,8.5c-2.7,0.7-5.4-0.4-7.7-2.1c-1.5-1.2-2.6-2.7-3.7-4.3c-0.3-0.4-0.6-0.8-0.9-1.3
						c-0.1,2.4,2.3,6.4,5.1,9.1c-2.8,0.2-5.4-1.5-7.5-4.9c-3.1,7,0.4,12,4.8,17.1c-7.3-5.1-11.6-13-9.2-20.6
						c1.8-5.9,7.7-10.5,13.5-10.4c0.2,0,0.5,0,0.7,0c2,0.2,2,0.2,1.8,2.1c-0.3,3.6-0.1,5.1,1.2,6.9c0.3,0,0.2-0.2,0.2-0.4
						c-1.1-6.9,1.6-12.2,7.6-15.6c9.7-5.5,19.9-6.2,30.2-1.8c5.6,2.4,9.2,6.7,10.5,12.6c0.4,2,0.3,3.9,0.1,5.9
						c0,0.3-0.2,0.7,0.2,0.9c0.6,0.2,0.5-0.4,0.6-0.7c0.4-1.3,0.8-2.6,0.7-3.9c0-1,0.5-1.5,1.4-1.9c6-2.1,11.3-0.8,15.9,3.2
						c6.7,5.8,7,14.2,2.9,21.7c-0.3,0.6-0.7,0.6-1.3,0.6c-1.7,0-3.4,0.3-5.3,1.2c1.4,0.4,2.5,0.4,3.5,0.3c2.9-0.1,4.9,1.3,6.5,3.4
						c5.3,6.8,1.2,18.7-7.1,21c-0.5,0.1-1,0.2-1.5,0.2C188.7,68.8,190.2,64.9,189.4,59.8z"/>
					<path class="st11" d="M73.7,121c-22-0.3-28.7-1.3-48.4-8.3c-0.9-0.3-0.9-0.6-0.5-1.4c1.6-3.5,2.6-5.8,4.5-9.2
						c1.5-2.6,3.8-4.1,6.4-5.3c5.4-2.5,11.3-3.6,17.2-4.3c11.2-1.3,21.9,0.7,32,5.3c1.6,0.7,3,1.7,4.5,2.4
						c8.2,3.9,8.2,12.1,7.6,18.2c-0.1,0.9-0.6,1.1-1.4,1.2c-2.4,0.2-4.7,0.6-7.1,0.8C83.6,120.8,78.6,120.9,73.7,121z"/>
					<path class="st9" d="M39.6,145c2.2,3.6,5.5,5.5,9.3,7.4c-0.3-0.8-0.7-1.1-1.1-1.4c-1.7-1.4-3.4-2.9-5.1-4.3
						c-0.3-0.3-0.6-0.6-0.8-0.9c-1.7-2.1-0.9-4.1,1.8-4.5c0.3-0.1,0.6-0.1,1.3-0.2c-1.5,2-0.1,3,1.1,4.1c3.8,3.6,7.9,6.8,12.3,9.6
						c2.4,1.5,4.7,1.8,7.4,0.7c3.7-1.5,7.3-3.1,10.8-5.1c0.4-0.2,0.8-0.5,1.3-0.8c-0.1,4.2-0.1,8.1-0.9,12.1
						c-0.1,0.8-0.7,1.2-1.3,1.2c-3.1,0.3-5.9,1.6-8.7,2.8c-1.3,0.5-2.5,1.1-3.8,1.7c2.5-0.3,4.9-1,7.3-1.7c1-0.3,2.3-1.3,3.1-0.7
						c0.6,0.5-0.2,2-0.5,3c-0.5,2-1.1,4-1.8,5.9c-0.7,2.4-2.2,4.3-4,6.1c-2.7,2.7-5.4,5.4-8.5,7.6c-0.5,0.4-1,0.8-0.5,1.5
						s1.1,0.2,1.6-0.1c3.3-2.3,6.1-5.1,8.9-8c0.4-0.4,0.7-0.7,1.1-1.1c-1,2.7-3,4.8-4.5,7.2c1.4-0.5,2.3-1.6,3.2-2.7
						c2-2.5,3.3-5.4,4.1-8.5c0.8-3.4,1.8-6.8,2.6-10.2c0.2-0.8,0.9-1.1,1.4-1.4c1.3-0.6,1.8-1.6,2-2.9c0.6-3.5,0.7-7,0.8-10.5
						c0-0.6,0-1.1,0.1-1.6c0.2-1.7,0-3.2-2-3.9c-0.6-0.2-0.7-0.8-1-1.1c2.4-1.9,5.2-1.7,8.1-1.6c-0.5,4.7-0.8,9.5-1.4,14.2
						c-1.4,10.9-6.5,19.9-13.6,28c-3.3,3.7-7,7.1-11.7,9.1c-3.8,1.6-7.7,2.2-11.8,1.2c-1.5-0.4-2.7-1.1-3.8-2.2
						c-2.8-3.1-5.3-6.4-7.3-10.1c-1.6-2.9-1.3-6-0.5-9c0.6-2.4,1.4-4.7,2.4-6.9c0.2-0.4,0.1-1,0.9-0.6c2.6,1.1,5.3,1.3,8.1,1.2
						c3.4-0.1,6.8,0.5,10.2,0.3c0.4,0,1.1,0.2,1.2-0.4c0.1-0.7-0.7-0.5-1.1-0.6c-4.2-0.5-8.2-1.3-12-3.2c-4-2-6.8-5.1-8.4-9.2
						c-0.6-1.5-0.6-2.8,0.2-4.2C37.2,148.5,38.3,146.7,39.6,145z"/>
					<path class="st12" d="M70.1,153.5c2.2-1,4.3-2.1,6.4-3.3c0.4-0.2,0.8-0.5,1.3-0.8c-0.1,4.2-0.1,8.1-0.9,12.1
						c-0.1,0.8-0.7,1.2-1.3,1.2c-3.1,0.3-5.9,1.6-8.7,2.8c-0.5,0.2-0.9,0.4-1.3,0.6c2.2-1.5,4.5-3.9,4.5-3.9V153.5L70.1,153.5z
						 M63.7,167.3c-0.3,0.1-0.7,0.2-0.9,0.2c-2.3,0,6.5,0.4,6.5,0.4l-6.9,16.8c1.7-1.5,3.3-3.1,4.9-4.7c1.8-1.7,3.2-3.7,4-6.1
						c0.6-2,1.2-4,1.8-5.9c0.3-1,1.1-2.5,0.5-3c-0.7-0.6-2,0.3-3.1,0.7C68.2,166.3,66,167,63.7,167.3L63.7,167.3z M58.6,189.2
						l-5.8,6.2c1.7-0.3,3.4-0.8,5.1-1.5c4.7-2,8.3-5.3,11.7-9.1c7.2-8.1,12.3-17.1,13.6-28c0.6-4.7,0.9-9.5,1.4-14.2
						c-2.8-0.1-5.6-0.3-8.1,1.6c0.3,0.3,0.4,0.9,1,1.1c2,0.6,2.2,2.1,2,3.9c-0.1,0.5-0.1,1.1-0.1,1.6c-0.1,3.5-0.2,7-0.8,10.5
						c-0.2,1.3-0.8,2.3-2,2.9c-0.6,0.3-1.2,0.5-1.4,1.4c-0.8,3.4-1.7,6.8-2.6,10.2c-0.8,3.1-2.1,6-4.1,8.5c-0.9,1.1-1.8,2.1-3.2,2.7
						c1.5-2.4,3.5-4.5,4.5-7.2c-0.4,0.3-0.8,0.7-1.1,1.1c-2.8,2.8-5.6,5.7-8.9,8C59.4,189.1,59,189.4,58.6,189.2z"/>
					<path class="st9" d="M90.5,163.6c-1.8,3.3-3.1,6.6-5,9.5c2.5-10.2,0.9-20.3-0.1-30.5c5.6-0.3,11.4-0.7,17.3-1.7
						c-1.5,2.2-2.7,4.2-3.7,6.5c-0.5,1.2-1,2.5-1.6,3.7c-0.4,0.7-0.7,1.5-1.6,1.8c-0.5,0.1-0.6,0.5-0.6,1c0.1,0.5,0.5,0.6,0.9,0.7
						c0.9,0.1,1.8,0.3,2.6,0.3c0.9,0,1.1,0.3,0.9,1.2c-0.6,4.5-1.3,9-1.9,13.5c-1.4,9.9-2.7,19.9-4.1,29.8c-0.7,5.3-1.7,10.6-2,16
						c-0.3,5.7-0.6,11.4-0.8,17.2c-4.7-1.5-9.3-1.9-13-4.7c1.5-6.2,4.1-15.5,5.2-22c1.1,2.6,1.5,5.1,1.8,7.6c0.3,2.6-0.3,5-1,7.4
						c1.4-2.2,2.2-4.5,2.3-7.1c0.1-3.6-0.9-6.9-1.9-10.3c-1.6-4.9-1.9-9.9-0.8-15c0.9-4.2,1.7-8.4,2.5-12.6c0.1-0.5,0.3-0.9,0.6-1.4
						c1.7-3,3.2-6,3.9-9.4C90.6,164.6,90.8,164.2,90.5,163.6z"/>
					<path class="st9" d="M115.1,49.8c1-4.5,2-8.8,3-13.1c0.1-0.6,0.4-0.8,1-0.9c21.9-5.8,43.9,1.5,56.8,21c0.3,0.4,0.5,0.8,0.2,1.4
						c-1.4,3.1-2.8,6.2-4.3,9.4c-1.2-1.7-2.3-3.3-3.5-4.8s-2.8-2.7-4.5-3.6c2.3,2.5,4.6,5,6.1,8.2c-2-2.2-4-4.4-6.2-6.4
						c-9.2-8.2-20.1-12.2-32.4-12.4C125.8,48.4,120.5,48.8,115.1,49.8z"/>
					<path class="st11" d="M96.1,121.3c-1,2.2-2.5,3.9-4.4,5.3c-4.3,3.4-9.4,5.4-14.4,7.5c-0.3,0.1-0.6,0.1-1,0.1
						c-14.5,0-28.8-1.1-43-4.2c-3.5-0.7-7-1.7-10.2-3.3c-0.5-0.2-0.9-0.5-1.3-0.7c-2.3-1.4-2.4-1.8-1.5-4.2c0.7-2,1.5-4,2.3-6.1
						c0.2-0.5,0.4-0.8,1.1-0.6c12.4,4.7,25.4,6.4,38.5,7c11,0.5,21.9,0.6,32.9-0.9C95.3,121.3,95.6,121.3,96.1,121.3z"/>
					<path class="st11" d="M103.9,122c4.7,1.7,9.1,2.9,12.8,5.9c0.4,0.4,0.8,0.7,1.2,1.2c1.5,1.9,1.4,3.5-0.5,5
						c-1.5,1.3-3.3,2.1-5.1,2.7c-5.8,2.1-11.9,2.9-18.1,3.5c-6.8,0.7-13.6,0.9-20.4,0.7c-18.4-0.4-36.6-2.2-54.4-7.3
						c-4.1-1.2-8-2.6-11.8-4.7c-1.4-0.8-2.7-1.6-3.8-2.8c-2.1-2.1-1.9-4,0.5-5.8c1.5-1.2,3.3-1.9,5.1-2.5c3.7-1.3,6.6-2.1,10.7-2.7
						c-0.9,2.5-1.7,5-2.7,7.3c-0.6,1.4-0.2,2.5,0.8,3.5c1.6,1.6,3.6,2.5,5.7,3.3c5.6,2.1,12.4,3.5,18.3,4.4
						c12.4,1.9,24.9,2.7,37.4,2.5c6.6-0.1,13.3-0.4,19.7-1.9c1.7-0.4,3.3-0.9,4.8-1.9c1.2-0.9,1.7-1.9,1.3-3.5
						C104.8,126.7,104.4,124.5,103.9,122z"/>
					<path class="st13" d="M159.3,166.4c-1.1-1.2-2.6-1.6-4-1.8c-0.6-0.1-1-0.3-1.1-1c-0.4-2.8-0.5-5.7,0-8.5c0.6-3.1,2.6-5,5.7-5.9
						c0.3,1.2-0.1,2.3-0.3,3.4c-0.4,2-0.1,3.9,0.6,5.8c1.6,4.2,3.4,8.3,5.8,12.1c2.7,4.3,4.3,8.9,5.2,13.8c0.2,1,0.3,2,0.6,3
						c0.5,1.4,0,2.4-1,3.4c-1.2,1.3-2.3,2.6-3.9,3.6c0.1-0.7,0.8-1.1,0.6-1.9c-9.2,5-10.5,5-17,3.6c-0.1,0.5,0.6,0.5,0.7,1
						c-1.6-0.5-4.2-0.4-5.3-1.6c-0.6-0.7-0.4-2.8,0-3.8c0.5-1.2,4.5-1.7,6-1.8c1.6-0.2,1.9-0.6,1.7-2.1c-2.9,0.9-6,1.9-9,1.6
						c-0.9-0.1-2.1-4.7-0.8-4.9c2-0.3,5.1-1.3,7.1-2c1.6-0.6,2.4-2.5-1.6-1.3c-2,0.6-5.6,2-7.7,1.8c-0.8-0.1-1.1-2.7-1-3.8
						c0.1-0.9,0.6-1.1,1.2-1.3c2.3-0.7,4.5-1.4,6.8-2.1c1.6-0.5,4-3.9-0.4-2c-2.1,0.9-4.2,1.7-7.2,2.3c-1.6-0.2-2-2.8-2.1-4.2
						c0-1.1,0.4-1.7,1.5-2c3.3-1,6.6-2.1,10-3.1c2.6-0.8,5.3-0.9,8-0.2C158.7,166.5,159,166.7,159.3,166.4z"/>
					<path class="st14" d="M171.2,176.1c3.4,7.1,5.8,14.5,5.6,22.4c0.4-0.8,0.5-5.7,0.2-7.2c-1-4.9-1.4-9.8-3.8-14.3
						c-0.2-0.3-0.2-0.7-0.3-1.1c-0.1-0.5,0-0.7,0.6-0.7c3.1,0.4,6.3,0.7,9.3,1.8c0.7,0.3,1.1,0.7,1.5,1.3c2.6,5.1,3.7,10.5,3.9,16.1
						c0.3,8.2,0.2,16.5-1,24.7c-0.3,1.9-0.9,3.7-1.6,5.5c-0.2,0.5-0.5,0.9-1,1c-3.6,0.8-7.1,1.6-11,2.5
						C177.3,210.6,175.6,193.3,171.2,176.1z"/>
					<text transform="matrix(1.0148 0 0 1 177.1912 192.8491)" class="st1 st15">Lo</text>
					<text transform="matrix(1.0148 0 0 1 176.9881 203.8491)" class="st1 st15">re</text>
					<text transform="matrix(1.0148 0 0 1 175.6688 214.9487)" class="st1 st15">m </text>
					<text transform="matrix(1.0148 0 0 1 174.9588 225.9487)" class="st1 st15">ip</text>
					<path class="st16" d="M163.1,104.8c-0.9,2-2.2,3.7-3.4,5.4c-1.2,1.8-2.6,3.3-4.1,4.9c3.4-2.4,5.8-5.6,8.2-9.4
						c0.4,2.1,0.7,3.9,1.1,5.6c0.1,0.7-0.1,1-0.6,1.3c-3.2,2.2-6.6,4.2-9.7,6.6c-1.2,1-2.5,1.9-3.6,3c5-2.4,9.7-5.2,14.3-8.2
						c0.7,2,0.7,2-1.1,3c-8.7,4.7-17.5,9.3-26.2,14c-2,1.1-3.9,1.9-6.1,0.8c3.6-2.3,7.7-3.6,11.4-5.9c-2.9,0.7-5.7,1.7-8.4,3
						c-1.3,0.6-2.6,1.2-3.9,1.9c-0.6,0.3-1,0.3-1.3-0.3s0.4-0.6,0.6-0.8c5.4-3.4,11-6.3,16.3-9.9c3.8-2.6,7.4-5.3,10.3-8.9
						c1.5-1.8,2.7-3.7,3.3-6c0.2-1,0.7-1.1,1.5-0.7C162,104.5,162.5,104.6,163.1,104.8z"/>
					<path class="st16" d="M151.1,156c-6.1-7.8-11.4-16-20.7-20c2.1-0.3,4.1,0.3,8.7,3c-1-1.6-4.3-3.4-7.1-3.9
						c-0.3,0-0.6-0.1-0.8-0.1c-0.4-0.1-0.6-0.2-0.6-0.7c0.1-0.5,0.4-0.6,0.8-0.5c5.6,0.7,10.8,2.4,14.1,7.4
						C148.3,145.6,149.8,150.5,151.1,156z"/>
					<path class="st16" d="M112.6,113.2c1.8,2.4,2.9,5.1,4.7,7.4c-0.9-1.9-1.7-3.8-2.6-5.7c-0.2-0.5-0.5-0.9-0.7-1.3
						c-1-1.9-1-1.9,0.8-3.2c0.8-0.6,1.6-1.1,2.5-1.8c2.2,7.5,5.7,14.4,9.6,21.1c-0.8,0.4-1.2,0.2-1.8-0.5c-1.4-1.8-2.7-3.6-4.6-5
						c1.1,2.2,2.7,4,4.1,6.1C122.4,130,112.5,116,112.6,113.2z"/>
					<path class="st16" d="M147.2,153.6c-3-1.7-6.1-2.8-9.1-4.1c-4.3-1.8-7.2-5.1-8.8-9.4c-0.1-0.3-0.2-0.5-0.3-0.8
						c-0.1-0.6,0.1-1.2,0.5-1.5c0.4-0.4,0.9,0.1,1.2,0.2c4.5,2,8,5.4,11.2,9C143.7,149.2,145.4,151.4,147.2,153.6z"/>
					<path class="st16" d="M100.2,152.1c7.3-5.3,14.1-11.4,23.1-13.9c-1.3,1.9-2.9,3.4-4.4,5c-0.9,1-2,1.9-3,2.9
						c-3.5,4-8.3,5-13.2,5.8C102,152.1,101.2,152.4,100.2,152.1z"/>
					<path class="st10" d="M52.3,148c1.7,0.8,3.3,0.6,5-0.1c1.8-0.7,3.6-0.2,5.3,0.4c2.1,0.8,4.2,0.8,6.3,0c0.7-0.3,1-0.1,1.1,0.6
						c0.3,2.4-0.1,3-2.3,3.9c-5.5,2.3-5.9,2.3-10.8-1.2c-1.5-1.1-3.1-2.2-4.6-3.4C52.2,148.2,52.3,148.1,52.3,148z"/>
					<path class="st16" d="M99.7,150.3c1.2-3.5,2.8-6.8,5.3-9.6c0.3-0.4,0.7-0.4,1.1-0.5c2.9-0.6,5.8-1.4,8.5-2.6c0.1,0,0.3,0,0.5,0
						c-0.5,0.5-1,0.8-1.4,1.2c2.7-1.1,5.4-2,8.4-2.2C113.5,139.4,106.9,145.2,99.7,150.3z"/>
					<path class="st7" d="M173.9,166.6c2.2,3.2,5.4,5.3,7.9,8.4c-3.4-0.8-6.6-1.2-9.7-1.5c-0.7-0.1-1-0.3-0.7-1
						C172,170.5,172.8,168.6,173.9,166.6z"/>
					<path class="st9" d="M167,209.2c0.2,6.7,0.7,12.9,2.2,19c0.1,0.3,0.4,0.9-0.1,1.1c-0.6,0.2-0.6-0.5-0.8-0.9
						c-1.1-3.3-1.5-6.7-1.8-10.2c-0.6-6.1-0.8-12.2-0.8-18.3c0-0.5-0.2-1.1,0.6-1.1s0.5,0.7,0.5,1C167,203.1,167.1,206.4,167,209.2z
						"/>
					<path class="st11" d="M65.5,85.1c1.9,0,2.1,2,1.6,3.8c-0.1,0.5-0.4,0.7-1,0.7c-1.6-0.2-1.7-0.2-3.3-0.3c-0.5,0-0.6-0.2-0.6-0.7
						C62.2,86.8,63.8,85.1,65.5,85.1z"/>
					<path class="st9" d="M110,122.1c-1.8-0.7-3.9-1.4-6-2.1c-0.5-0.2-1.6-2.8-1.4-3.2c0.4-0.5,0.9-0.3,1.3-0.1
						c1.1,0.6,2.1,1.3,2.9,2.1C108,119.9,109.1,121.1,110,122.1z"/>
					<path class="st9" d="M70.7,151.4c0.8-1.6,1.5-2.8,2.1-4c0.1-0.2,0.3-0.5,0.4-0.5c1.5,0.3,3,0.1,4.5,0.2
						C75.7,149,73.3,150.1,70.7,151.4z"/>
					<path class="st16" d="M126,135.4c0.2-1,0.5-2.1,1.1-2.9c0.2-0.3,0.5-0.8,1-0.6c0.5,0.1,0.8,0.5,0.8,1c0.2,1.5-0.5,2.8-1.1,4.1
						c-0.1,0.3-0.4,0.3-0.6,0.1C126.8,136.6,125.9,136.4,126,135.4z"/>
					<path class="st16" d="M116.9,136.7c1.3-1,2.5-2,3.4-3.4c0.4-0.7,1.4-0.5,2.2-0.6c0.4,0,0.2,0.3,0.2,0.5c0,0.5-0.1,1.1-0.1,1.6
						c0,0.4,0,0.6-0.5,0.6C120.3,135.5,118.6,136.1,116.9,136.7z"/>
					<path class="st16" d="M125.8,135.8c-1-1.1-1.4-2.1-1.1-3.3c0.2-1,1.2-0.8,2.1-1C126.1,132.9,125.7,134.2,125.8,135.8z"/>
					<path class="st8" d="M105.8,191.2c-0.1,1.8-1.6,3.1-3.3,3c-1.7-0.1-3.1-1.5-3.1-3.2s1.6-3.2,3.3-3.1
						C104.5,188,105.9,189.4,105.8,191.2z"/>
					<path class="st8" d="M111.2,160.8c0,1.8-1.4,3.1-3.2,3.1c-1.7,0-3.1-1.4-3.1-3.1c0-1.7,1.4-3.2,3.2-3.2
						C109.8,157.6,111.2,159,111.2,160.8z"/>
					<path class="st8" d="M100.3,229.2c-1.8,0-3.2-1.4-3.1-3.2c0.1-1.7,1.4-3,3.2-3c1.8,0,3.2,1.4,3.2,3.1
						C103.5,227.9,102.1,229.2,100.3,229.2z"/>
					<path class="st8" d="M170.7,120.2c0.2-0.4,0.5-0.2,0.7-0.1c4.1,0.9,8.2,2.2,12.1,3.7c0.3,0.1,0.7,0.3,1,0.5
						c0.4,0.2,0.8,0.4,0.7,0.9c-0.2,0.5-0.7,0.4-1.1,0.4c-1.3-0.1-2.5-0.6-3.6-1c-3.1-1.3-6.3-2.6-9.4-3.9
						C171,120.5,170.7,120.5,170.7,120.2z"/>
					<path class="st8" d="M129.2,97.2c-2,0-3.7-0.2-5.3-0.7c-1.3-0.4-1.5-0.9-0.6-1.8c1.2-1.2,1.5-2.4,0.8-4
						c-0.5-1.2-0.9-2.4-1.4-3.6c-0.2-0.5-0.6-1-0.1-1.5c0.4-0.4,1-0.2,1.4-0.1c2.4,0.5,4.8,1.1,7.3,1.3c3.4,0.3,6.8-0.1,10-1.2
						c0.5-0.2,1.1-0.5,1.6,0c0.4,0.5,0.1,1-0.1,1.5c-2,4.7-5.1,8.4-10.4,9.7C131.3,97,130.1,97.2,129.2,97.2z"/>
					<path class="st8" d="M135.4,59.9c3.9,0.1,7.8-0.5,11.7-0.3c3.6,0.2,5.8,2.5,5.8,6.3c-2.4-3.5-5.8-3.2-9.3-2.9
						c-1.6,0.2-3.2,0.3-4.9,0.2C136.3,63,135.7,62.5,135.4,59.9z"/>
					<path class="st8" d="M165.2,81.4c1.5-0.4,2.7-0.3,3.5,0.9c0.5,0.9,0.3,1.6-0.5,2.5c-0.1-0.9,0.1-1.7-0.8-2.1
						c-0.5-0.2-1-0.2-1.5,0c-0.7,0.3-1,0.5-0.4,1.3c1.3,1.5,0.6,3.4-1.4,3.8c-0.5,0.1-1.1,0.2-1.2-0.5c-0.1-0.5,0.1-0.9,0.6-1
						c0.4-0.1,0.9-0.1,0.9-0.7c0-0.5-0.5-0.8-0.9-1c-1-0.3-1.1-0.9-0.8-1.8c0.6-1.7,1.3-3.3,2.7-4.6c1.4-1.4,3.3-1.8,4.7-1.1
						c1.7,0.8,2.2,2.4,2.2,4.1c-0.1,1.8-0.9,3.4-1.8,4.8c-0.4,0.5-0.8,0.8-1.4,0.5c-0.5-0.4-0.4-0.9,0-1.3c0.6-0.9,1.1-1.7,1.4-2.7
						c0.2-0.7,0.3-1.4,0.2-2.2c-0.3-1.7-1.7-2.4-3.2-1.5C166.5,79.3,165.8,80.2,165.2,81.4z"/>
					<path class="st8" d="M140.8,71c0.4,0,0.7,0.1,1.2,0.1c-0.6-1.1-0.9-2.1-0.8-3.3c-0.9,0.2-1.1,1-1.5,1.5c-0.5,0.6-1,1.7-1.8,1.4
						c-0.9-0.3-0.9-1.5-0.9-2.7c0.3,0.6,0.5,0.9,0.7,1.3c0.3,0,0.5-0.2,0.5-0.4c0.9-2.3,2.7-2.9,5.1-2.6c2.1,0.3,4.3,0.3,6.3,1.2
						c0.5,0.2,0.5,0.3,0.3,0.8c-0.1,0.3,0.1,0.4,0.3,0.5c0.6,0.7,1.4,1.4,1.6,2.5c-0.7-0.6-1.3-1.1-2-1.6c-0.9-0.8-1.9-1.4-3-1.6
						c-0.3-0.1-0.8-0.2-1,0.2s0.2,0.8,0.6,0.8c1.6,0.3,1.7,0.7,1.6,1.7c0,0.2-0.3,0.6-0.2,0.8c0.2,0.3,1.5,0,1.2,0.2
						c-0.7,0.4-3.4,0.7-4,0.7C143.5,72.2,142.1,72.1,140.8,71z"/>
					<path class="st8" d="M114.9,69c0.3-1.2,1.3-1.8,2.1-2.7c-0.5,0.1-0.8,0.1-1.1,0.2c-0.2-0.1-0.2-0.2-0.1-0.2
						c0.9-0.6,1.9-0.8,2.9-0.8c1.4,0,2.7-0.1,4.1,0c2.7,0.1,3.6,0.8,4.5,3.2c0.2,0.7-0.7,2-1.4,2c-0.2,0-0.4,0-0.5-0.2
						s0-0.4,0.2-0.6c1.3-1.3-0.5-1.8-0.8-2.7c-0.2-0.8-1.3-0.8-2.1-0.7c-0.2,0-0.4,0.2-0.4,0.3c-0.1,0.2,0.1,0.4,0.3,0.6
						c0.7,0.4,1.4,0.4,2.1,0.4c0.3,0.8-1,1.3-0.4,2.2c0.1,0.1-0.4,0.3-0.7,0.3c-1.3,0.3-2.7,0.4-4,0.1c-0.5-0.1-1.2-0.1-0.3-0.9
						c0.5-0.4-0.2-0.8-0.4-1.2c-0.4-1.6-0.7-1.7-2.1-0.7C116.3,68.1,115.6,68.6,114.9,69z"/>
					<path class="st8" d="M129.4,64.5c0,0.4,0,0.8,0.1,1.2c0.5,2,0.3,3.8-0.7,5.6c-1,1.9-1.8,3.8-2.9,5.6c-1,1.5-0.7,2.8,0.1,4.2
						c0.3,0.5,0.6,0.9,0.7,1.4c-1.4-1-2.4-2.2-2.9-3.9c-1,1.1-0.2,2,0.5,3c-1.3-0.3-2-1.4-1.5-2.6c0.2-0.5,0.5-1,0.8-1.4
						c2.7-2.9,3.6-6.7,4.9-10.2c0.5-1.5-0.1-3.2-0.4-4.8c0-0.4-0.1-0.7-0.1-1.1C128.7,62.4,128.8,63.6,129.4,64.5L129.4,64.5z"/>
					<path class="st8" d="M114.1,64.2c0.5-3.8,1.6-4.8,4.9-4.6c2.1,0.1,4.1,0.5,6.2,0.7c0.7,0.1,0.6,0.4,0.5,0.8
						c-0.2,1-0.9,1.4-1.8,1.4c-1.2,0.1-2.4-0.1-3.6-0.4C118.1,61.8,115.9,61.7,114.1,64.2z"/>
					<path class="st8" d="M131.8,99.2c-1.2,2-2.7,2.7-4.6,2.4c-1.6-0.2-2.6-1-3.3-2.8C126.4,100.2,129,100.1,131.8,99.2z"/>
					<path class="st17" d="M134.5,82.7c2.4-1.2,1-3.1,0.8-4.8c1.1,1.1,1.8,2.6,1.5,3.5C136.4,82.4,135.5,82.6,134.5,82.7z"/>
					<path class="st18" d="M122.1,107.6c-2.3-0.8-3.8-2.6-4-4.8C118.8,104.9,120.8,105.9,122.1,107.6z"/>
					<path class="st19" d="M116.2,90.5c0.1-0.4-0.2-0.9,0.3-1s0.5,0.4,0.6,0.8c0.2,0.6,0.6,1.3,0.5,2c0,0.3,0,0.6-0.4,0.6
						c-0.4,0.1-0.7-0.1-0.8-0.4C116.4,91.7,116.3,91.1,116.2,90.5z"/>
					<path class="st20" d="M148.5,91.2c-0.3,0.7-0.5,1.5-0.8,2.2c-0.1,0.3-0.4,0.6-0.8,0.4c-0.4-0.2-0.4-0.5-0.2-0.8
						c0.3-0.7,0.6-1.3,1-2c0.1-0.3,0.1-0.7,0.6-0.5C148.5,90.6,148.5,90.9,148.5,91.2z"/>
					<path class="st21" d="M129.4,64.5c0.1-0.6-0.5-1.2-0.2-2c0.8,1,1.5,1.8,1.2,3.2C129.6,65.5,129.8,64.8,129.4,64.5L129.4,64.5z"
						/>
					<path class="st17" d="M133.9,81.7c-0.7,0.2-1.5,0.5-2.2,0.7C132.1,80.8,132.7,80.6,133.9,81.7z"/>
					<path class="st22" d="M187.9,28.5c1.9,2.1,2.1,4.7,1.8,7.4c-0.2,2-0.5,3.9-1.2,5.8c-0.2,0.4-0.3,1.1-0.8,1
						c-0.7-0.2-0.4-0.9-0.3-1.3c0.6-2.4,1.3-4.7,1.4-7.2C188.8,32.2,188.7,30.3,187.9,28.5z"/>
					<path class="st8" d="M133.8,7c-3.8,1.1-6.4,3.6-9,6.3c-0.5,0.6-1.3,1.7-1.9,1.2c-0.7-0.6,0.5-1.5,1-2.1
						c2.1-2.7,4.7-4.7,8.3-5.3c0.3-0.1,0.6-0.1,1-0.1C133.4,7,133.6,7,133.8,7z"/>
					<path class="st23" d="M133.2,27.2c0,2-1.6,4-3.7,4.5C130.7,29.9,132.4,28.9,133.2,27.2z"/>
					<path class="st8" d="M75.2,153.2c0.7,0,1,0,1.1,0.3s0,0.6-0.2,0.7c-1.8,1.3-3.9,2-6,2.7c-0.2,0.1-0.4-0.1-0.6-0.3
						c-0.2-0.3-0.1-0.5,0.1-0.6C71.6,155,73.6,154,75.2,153.2z"/>
					<path class="st22" d="M84.8,196.9c0-1,0-1.9,0-2.9c0-0.2,0-0.5,0.3-0.5s0.4,0.2,0.4,0.5c0.1,3,1,6,1.5,8.9
						c0.1,0.3,0.2,0.7-0.2,0.8c-0.5,0.2-0.6-0.3-0.8-0.6C84.8,201.2,84.7,199,84.8,196.9z"/>
					<path class="st22" d="M119.7,37c1.1,3-0.6,8.5-3.1,9.4C118.5,43.5,118.9,40.3,119.7,37z"/>
					<path class="st23" d="M140.3,46.7c1.2-2.9,2.7-5.7,2.9-9.3C144.5,39.9,142.7,45.3,140.3,46.7z"/>
					<path class="st23" d="M174.9,58c-0.7,1-4.7,5.5-5.2,5.7C169.5,62,172.5,58.7,174.9,58z"/>
					<path class="st22" d="M159.9,52.1c-0.6-1.7,0.5-4.6,2.3-5.7C161.3,48.2,161,50.3,159.9,52.1z"/>
					<path class="st8" d="M100.5,138c-0.8-0.1-1.6-0.2-2.5-0.4c-0.2,0-0.6,0-0.6-0.4c0-0.3,0.3-0.4,0.6-0.5c1.3-0.2,2.7-0.4,4-0.5
						c4.7-0.5,9-2.1,12.9-4.8c0.3-0.2,0.5-0.7,0.9-0.3c0.3,0.4-0.2,0.6-0.4,0.9C111.4,136.2,106.2,137.5,100.5,138z"/>
					<path class="st8" d="M5.8,124.6c2,1.3,3.9,2.6,6,3.5c1.4,0.6,2.8,1.2,4.3,1.7c0.9,0.4,1.7,0.7,2.5,1.3c0.2,0.2,0.7,0.3,0.5,0.7
						c-0.1,0.4-0.6,0.2-0.8,0.2c-0.4,0-0.8-0.1-1.2-0.3c-4-1.6-7.8-3.4-11-6.4C5.8,125.2,5.6,125.1,5.8,124.6z"/>
					<path class="st22" d="M165.1,174.5c0.2,0.1,0.4,0.1,0.4,0.2c1.7,2.7,2.8,5.6,3,8.8c0,0.4,0.3,1.2-0.4,1.3
						c-0.6,0-0.6-0.7-0.7-1.2c-0.3-1.5-0.5-3.1-0.9-4.6C166.1,177.4,165.5,176,165.1,174.5z"/>
					<path class="st22" d="M176,225.6c2.7-1,5.5-2,8.2-2.9c0.3-0.1,0.6-0.2,0.8,0.1c0.2,0.4-0.1,0.6-0.3,0.8c-0.9,0.8-2,1.1-3.2,1.4
						c-1.8,0.4-3.5,0.7-5.3,1C176.1,225.9,176,225.8,176,225.6z"/>
					<path class="st24" d="M185.3,220.9c-1.8,1.3-3.5,1.5-5.3,2.1C181.2,222,183.8,220.9,185.3,220.9z"/>
					<path class="st12" d="M104.2,191c-0.1,0.9-0.6,1.5-1.5,1.5s-1.5-0.6-1.5-1.4c0-0.9,0.6-1.5,1.5-1.5
						C103.5,189.5,104,190.2,104.2,191z"/>
					<path class="st12" d="M108,162.2c-0.9-0.1-1.5-0.7-1.4-1.6c0-0.9,0.6-1.5,1.5-1.4c0.9,0,1.5,0.6,1.4,1.5
						C109.5,161.7,108.9,162.1,108,162.2z"/>
					<path class="st12" d="M100.3,227.6c-0.9-0.1-1.5-0.7-1.4-1.6c0-0.8,0.6-1.4,1.5-1.4s1.5,0.6,1.5,1.5
						C101.8,227.1,101.2,227.5,100.3,227.6z"/>
					<path class="st16" d="M131.1,95.4c-0.3,0-1,0.1-1.7,0.1c-0.4,0-1.1,0.3-1.3-0.1c-0.3-0.5,0.1-1.1,0.4-1.5
						c1.2-2.2,6.1-3.1,8-1.5c0.5,0.4,0.1,0.6-0.2,0.8C135.4,94,133.3,94.9,131.1,95.4z"/>
					<path class="st9" d="M124.8,87.3c4.4,1,8.6,1.6,13,0.9C134.2,90.8,126,90.4,124.8,87.3z"/>
					<path class="st25" d="M25.3,124.5c0.8-2.2,1.6-4.4,2.4-6.5c1.6,0.5,2.7,0.9,3.4,1.1c-0.6,2.1-1.3,4.4-2.1,6.9
						c-0.4,1-1.5,1.5-2.6,1.1C25.4,126.6,24.9,125.5,25.3,124.5L25.3,124.5z M29.6,113.1c3-6.8,7-12.7,15.3-16.1
						c3.3-1.4,3.4-1.1,7.1-1.6L48.6,97c-9.7,4.7-13.3,10-15.9,17.1L29.6,113.1z"/>
					<path class="st13" d="M119,70.1c-0.1,0-0.3,0-0.4-0.1c-1.4-0.4-1.2-0.5-2-2.2c-0.6,0.4-1.1,0.8-1.7,1.2
						c0.3-1.2,1.3-1.8,2.1-2.7c-0.5,0.1-0.8,0.1-1.1,0.2c-0.2-0.1-0.2-0.2-0.1-0.2c0.9-0.6,1.9-0.8,2.9-0.8c1.4,0,2.7-0.1,4.1,0
						c2.7,0.1,3.6,0.8,4.5,3.2c0.2,0.7-0.7,2-1.4,2c-0.2,0-0.4,0-0.5-0.2c0-0.2,0-0.3,0-0.4c-0.2,0-0.7,0.1-1.3,0.1
						c-0.1,0.1-0.3,0.1-0.5,0.1c-1.3,0.3-2.7,0.4-4,0.1C119.4,70.3,119.1,70.3,119,70.1L119,70.1z M124,62.6
						c-1.2,0.1-2.4-0.1-3.6-0.4c-2.3-0.5-4.5-0.5-6.2,2c0.1-0.8,0.2-1.5,0.4-2.1c0.6-2.1,1.9-2.7,4.5-2.5c2.1,0.1,4.1,0.5,6.2,0.7
						c0.3,0,0.4,0.1,0.5,0.2c0.1,0.1,0.1,0.4,0,0.6C125.6,62.1,124.9,62.5,124,62.6L124,62.6z M128.2,60.4
						c-0.9-3.4-1.3-7.5-0.5-10.3c-3.9,0.1-7.9,0.6-11.8,1.3c-0.7,0.1-1.2,0.6-1.3,1.4c-0.2,1.5-0.6,2.9-0.8,4.3
						c-0.2,1.8-0.4,3.5-0.6,5.3c-0.4,3.4-0.8,6.7-1.5,10c-0.6,2.7-1.2,5.4-0.7,8.2c1.1,7.4,3,14.6,5.7,21.6c0.6,1.6,1.2,3.2,2.4,4.5
						c1.1,1.1,2.6,2,4.2,2.7c-0.1-1.2-0.1-2.9,0.3-5.1c0.3-1.8,1.1-2.7,1.8-3.2c-0.5-0.3-0.9-0.8-1.3-1.5c-1.5-0.8-2.3-1.8-2.3-2.6
						c0-0.5,0.5-0.9,1.1-1.4c0-0.2,0.2-0.5,0.5-0.8c0.6-0.6,1-1.3,1.1-1.9c0-0.5-0.1-1-0.1-1.6c0-0.1-0.1-0.3-0.2-0.4
						c-0.5-1.2-0.9-2.4-1.4-3.6c-0.1-0.2-0.2-0.5-0.3-0.7c-1.3-2.2-0.2-2.8,0.7-2.8c0.9,0,3.1,0.8,5.8,1c2.2,0.2,5.5-2.8,6.8-4
						c0-0.2,0-0.3-0.1-0.5c-1.7,0-7,0.1-9.7-0.4c-0.3,0-0.5-0.1-0.7-0.2c0.1,0.5,0.3,1,0.7,1.6c0.3,0.5,0.6,0.9,0.7,1.4
						c-1.4-1-2.4-2.2-2.9-3.9c-1,1.1-0.2,2,0.5,3c-1.3-0.3-2-1.4-1.5-2.6c0.2-0.5,0.5-1,0.8-1.4c2.7-2.9,3.6-6.7,4.9-10.2
						c0.5-1.5-0.1-3.2-0.4-4.8c0-0.4-0.1-0.7-0.1-1.1c0.6,0.8,0.7,1.9,1.2,2.7c-0.1-0.5-0.2-1-0.3-1.4
						C128.7,62.1,128.4,61.3,128.2,60.4L128.2,60.4z M117.1,90.2c0.2,0.6,0.6,1.3,0.5,2c0,0.3,0,0.6-0.4,0.6
						c-0.4,0.1-0.7-0.1-0.8-0.4c-0.1-0.7-0.2-1.4-0.3-1.9c0.1-0.4-0.2-0.9,0.3-1C117,89.4,117,89.9,117.1,90.2L117.1,90.2z
						 M131.7,82.4c0.4-1.5,1-1.7,2.2-0.7C133.2,81.9,132.5,82.1,131.7,82.4L131.7,82.4z M118.1,102.8c0.8,2.1,2.7,3.2,4,4.8
						C119.8,106.8,118.3,105,118.1,102.8z"/>
					<path class="st10" d="M148.4,173.7c4.2-1.8,1.8,1.6,0.3,2c-0.4,0.1-0.7,0.2-1.1,0.4c-0.2,0.6-0.3,1.4,0,2.3
						c0.3,1.5,0.8,2.4,1.2,2.9c0.2-0.1,0.4-0.1,0.6-0.2c3.9-1.2,3.2,0.7,1.6,1.3c-0.5,0.2-1,0.4-1.6,0.6c-0.3,1.1-0.7,3,0.3,4.1
						c0.6,0.7,1.1,1.1,1.5,1.4c0.9-0.2,1.7-0.5,2.6-0.8c0.3,1.5-0.1,1.9-1.6,2.1c0.2,1,1,2.8,3.7,3.2c3.8,0.6,12.6-4.4,12.6-4.4
						l2.8-5c-0.9-4.7-2.5-9.1-5.1-13.1c-2.4-3.8-4.2-7.9-5.8-12.1c-0.7-1.9-0.9-3.8-0.6-5.8c0.2-1.1,0.6-2.2,0.3-3.4
						c-3.1,1-5.1,2.8-5.7,5.9c-0.5,2.8-0.4,5.7,0,8.5c0.1,0.7,0.5,0.9,1.1,1c1.5,0.3,2.9,0.7,4,1.8c-0.4,0.4-0.6,0.1-0.9,0.1
						c-2.7-0.7-5.4-0.6-8,0.2c-1.2,0.4-2.4,0.7-3.6,1.1C146.2,170.5,147.5,173.2,148.4,173.7C148.3,173.7,148.4,173.7,148.4,173.7
						L148.4,173.7z M166.4,178.9c-0.4-1.4-0.9-2.9-1.4-4.4c0.2,0.1,0.4,0.1,0.4,0.2c1.7,2.7,2.8,5.6,3,8.8c0,0.4,0.3,1.2-0.4,1.3
						c-0.6,0-0.6-0.7-0.7-1.2C167,181.9,166.8,180.4,166.4,178.9z"/>
					<path class="st13" d="M157.9,157.8c-0.7-2.7-0.2-5.5,1.1-8.3c-2.5,1-4.2,2.8-4.7,5.6s-0.4,5.7,0,8.5c0.1,0.7,0.5,0.9,1.1,1
						c1.3,0.2,2.5,0.6,3.6,1.4C158.7,163.8,158.5,160,157.9,157.8z"/>
					<path class="st12" d="M164.2,227.1c-1.6-0.8-7.8,8.5-7.7,8.1c1.3-6.5,6.2-9.9,6.5-16.5c0.2-4.7-1.8-11.4-0.7-19.3
						c-0.1-0.6,0-1.4-1-1.3c-1.7,0.1-3.4,0.6-5.1,0.5c-0.3,0-0.4,0.2-0.5,0.4c-0.7,1.5-2,1.7-3.5,1.4c-1.4-0.2-2.9-0.5-4.2-0.9
						c-1.5-0.4-2.6-0.8-3.4-1.3c0.5,3.2,2.7,4.4,6.4,5.4c5.9,1.7,5.9,2.7,5.9,2.7l-0.6,18.1l-10.5,18.1l-0.3,1.2l-0.1,0.5
						c2.3-0.2,23.1-3,23.4-4.5C168.8,239.3,166,227.9,164.2,227.1z"/>
					<path class="st12" d="M214,198.7c-6.3,2.6-14.5,3.2-23,3.1c0.4,3.1,0.6,6.3,0.4,9.4c-0.1,1.1,0.4,1.5,1.4,1.7
						c2,0.4,2.3,0.3,4.3-0.2c3.7-0.9,7.1-2.4,10.3-4.3c3.3-2,6.2-4.4,8.9-7.3c2-2.1,3.5-4.3,4.4-6.9
						C218.8,196.1,216.6,197.6,214,198.7z"/>
					<path class="st12" d="M173.4,148.5c-0.9,3-0.7,6.2-0.6,9.3c0.2-0.7,0.3-1.4,0.5-2.1c1-4.3,2.7-8.3,4.9-12L173.4,148.5z"/>
					<path class="st12" d="M171.6,153.7c0.5-1.3,0.6-2.6,0.7-3.9c0-0.1,0-0.2,0-0.3l-1.1,1.1C171.4,151.7,171.5,152.7,171.6,153.7z"
						/>
					<path class="st12" d="M170.2,161.4c-0.2-3.2-0.1-6.5,0.3-9.7c-0.7,1.3-3.3,5.8-6.2,10.1c0.8,1.6,1.6,3,2.6,4.9
						c0.4,0.7,0.7,1.4,1.3,1.9C170.1,166,170.3,164.5,170.2,161.4z"/>
					<path class="st12" d="M186,46.7c-1.1,0-2.2,0.1-3.5-0.3c1.9-0.9,3.5-1.2,5.3-1.2c0.5,0,0.9,0,1.3-0.6
						c4.1-7.4,3.8-15.9-2.9-21.7c-1.7-1.4-3.4-2.5-5.2-3.2c4.5,13.1,3,21.7-1.2,23.4c-1.5,0.6-2.9,1-4.2,1.2
						c0.3,0.9,0.5,1.8,0.9,2.7c1.4,4,2.9,7.9,5.8,11.1c2,2.1,4.3,3.1,7.3,1.7c0.8,5.2-0.7,9.1-5.5,11.4c0.6,0,1,0,1.5-0.2
						c8.3-2.3,12.4-14.2,7.1-21C190.9,48,188.9,46.6,186,46.7L186,46.7z M188.5,41.7c-0.2,0.4-0.3,1.1-0.8,1
						c-0.7-0.2-0.4-0.9-0.3-1.3c0.6-2.4,1.3-4.7,1.4-7.2c0.1-1.9,0-3.8-0.8-5.6c1.9,2.1,2.1,4.7,1.8,7.4
						C189.5,37.9,189.2,39.8,188.5,41.7z"/>
					<path class="st12" d="M164.6,44.4c2.8,2.6,3.5,4.5,2.2,7.8c-1.2,2.9-3.2,5.7-4.6,7.5c0.4,0.4,0.9,0.8,1.3,1.1
						c2.2,2,4.2,4.2,6.2,6.4c-1.5-3.1-3.8-5.6-6.1-8.2c1.8,0.9,3.3,2.1,4.5,3.6s2.3,3.2,3.5,4.8c1.5-3.2,2.9-6.3,4.3-9.4
						c0.3-0.6,0.1-0.9-0.2-1.4C172.6,51.9,168.8,47.8,164.6,44.4L164.6,44.4z M169.7,63.7c-0.2-1.7,2.8-5,5.2-5.7
						C174.2,59,170.1,63.5,169.7,63.7z"/>
					<path class="st9" d="M79,114.9c0-6.4-1.2-12.4-11.5-22.2c-1.7-0.2-3.4-0.4-5.2-0.5c-3.1-0.1-6.3,0-9.5,0.3
						c-5.9,0.7-11.7,1.8-17.2,4.3c-2.6,1.2-4.9,2.8-6.4,5.3c-1.9,3.4-2.9,5.6-4.5,9.2c-0.3,0.7-0.3,1,0.5,1.4
						c8.6,3.1,14.7,5,20.7,6.2c7.8,1.6,15.3,1.9,27.7,2.1c1.4,0,2.9,0,4.4-0.1C78.6,120,79,118.2,79,114.9L79,114.9z M48.6,96.9
						c-9.7,4.7-13.3,10-15.9,17.1l-3.1-0.9c3-6.8,7-12.7,15.3-16.1c3.3-1.4,3.4-1.1,7.1-1.6L48.6,96.9z"/>
					<path class="st9" d="M62.1,122.2c-5.6-0.3-11.2-0.7-16.8-1.5c-7.4-1.1-14.6-2.8-21.7-5.5c-0.7-0.3-0.9,0-1.1,0.6
						c-0.8,2-1.6,4-2.3,6.1c-0.9,2.5-0.8,2.8,1.5,4.2c0.4,0.3,0.9,0.5,1.3,0.7c3.2,1.6,6.7,2.6,10.2,3.3c2.9,0.6,5.8,1.2,8.7,1.6
						c11.3,1.8,22.8,2.5,34.3,2.5h0.1c0.1-0.8,0.4-2.3,0.7-4.6c0.5-3.3,0.1-6-0.1-7.1C72.1,122.6,67.1,122.4,62.1,122.2L62.1,122.2z
						 M31.1,119c-0.6,2.1-1.3,4.4-2.1,6.9c-0.4,1-1.5,1.5-2.6,1.1c-1-0.4-1.5-1.5-1.1-2.5c0.8-2.2,1.6-4.4,2.4-6.5
						C29.3,118.4,30.4,118.8,31.1,119z"/>
					<path class="st9" d="M6.3,119.1c0.5,5.6,10.3,11.5,35,15.7c1.2,0.2,2.5,0.4,3.7,0.6c31.6,4.9,63.2,2.3,72.2-7.1
						c-0.2-0.2-0.4-0.3-0.6-0.5c-3.7-3-8.2-4.2-12.8-5.9c0.5,2.5,0.9,4.8,1.5,7c0.4,1.6-0.1,2.6-1.3,3.5c-1.4,1-3.1,1.5-4.8,1.9
						c-6.5,1.5-13.1,1.8-19.7,1.9c-12.5,0.2-25-0.6-37.4-2.5c-0.2,0-0.4-0.1-0.6-0.1c-5.8-0.9-12.3-2.3-17.7-4.3
						c-2.1-0.8-4.1-1.7-5.7-3.3c-1-1-1.4-2.1-0.8-3.5c1-2.4,1.8-4.8,2.7-7.3c-4,0.6-7,1.4-10.7,2.7C8.3,118.2,7.3,118.6,6.3,119.1z"
						/>
					<path class="st12" d="M97.4,151c0.6-1.2,1.1-2.4,1.6-3.7c0.9-2.2,2.2-4.3,3.7-6.5c-5.9,1.1-11.7,1.4-17.3,1.7
						c1,10.2,2.7,20.3,0.1,30.5c1.9-3,3.2-6.3,5-9.5c0.3,0.7,0.1,1.1,0,1.5c-0.7,3.4-2.2,6.4-3.9,9.4c-0.3,0.4-0.5,0.9-0.6,1.4
						c-0.8,4.2-1.6,8.4-2.5,12.6c-1.1,5.1-0.7,10,0.8,15c1.1,3.3,2,6.7,1.9,10.3c-0.1,2.6-0.8,4.9-2.3,7.1c0.7-2.4,1.2-4.9,1-7.4
						c-0.3-2.5-0.7-4.9-1.8-7.6c-1,6.5-3.9,18.3-6.6,23.8c2.1-0.2,3.3-0.1,6.1-0.5c3-11.6,4.7-22.2,4.4-25.1c-0.3-2.9,0-0.3,0-0.4
						c0,0.1-0.1,0.1-0.2,0.1c-0.5,0.2-0.6-0.3-0.8-0.6c-1.1-1.9-1.2-4.1-1.1-6.3c0-1,0-1.9,0-2.9c0-0.2,0-0.5,0.3-0.5
						s0.4,0.2,0.4,0.5c0.1,2.5,0.7,5,1.2,7.4c-0.9-7.5-2.2-19.4,1.6-24.6c4.2-5.8,4.8-19.3,4.8-19.3s0.9,0.4,6.3,0.4
						c0.1-0.7,0.2-1.3,0.3-2c0.1-0.8,0-1.2-0.9-1.2s-1.8-0.2-2.6-0.3c-0.4-0.1-0.9-0.2-0.9-0.7c-0.1-0.5,0.1-0.8,0.6-1
						C96.7,152.5,97,151.7,97.4,151z"/>
					<path class="st12" d="M124.6,142.7c-2.6,3.7-5.6,7-9.6,9.4c-3.8,2.3-8,2.9-12.4,2.9c-0.7,0-1.2-0.1-1.3,0.9
						c-0.1,0.6-0.2,1.3-0.2,1.9c1.3,0,2.9-0.1,4.6-0.1c11.2-0.4,19.6-11,19.6-11s0,0,4,5.2c3.9,5,12.7,6.9,21.9,10.5
						c0-0.5-0.1-1.1-0.2-1.8c-0.1-0.6-0.2-0.9-0.8-1.1c-4.1-1.5-6.9-3.3-11.1-4.5c-2.6-0.8-4.7-2.1-6.6-4c-2.8-2.8-5-6-7-9.6
						C125.2,141.9,124.9,142.3,124.6,142.7z"/>
					<path class="st12" d="M104,120c2.1,0.8,4.2,1.5,6,2.1c-1-1-2-2.2-3.1-3.3c-0.9-0.9-1.9-1.5-2.9-2.1c-0.5-0.3-1-0.5-1.3,0.1
						C102.4,117.2,103.5,119.8,104,120z"/>
					<path class="st13" d="M141.8,121c4.4-6.8,7.8-15,10.3-22.4c-4.8,7.1-10.5,13.5-17.2,19c-1.4,1.2-3,1.4-4.7,1.1
						c-2.5-0.4-4.7-1.5-6.7-2.9c-0.3-0.2-0.5-0.6-1-0.5c-0.1,3.6,2,6.3,3.5,9.2c0.4,0.8,1.5,0.9,2.4,1c0.8,0,0.6-0.9,0.9-1.4
						c0.5-0.7,0.5-1.6,1.3-2.1c0.3,1.3-0.2,2.4-0.4,3.6c2.8-0.2,5.4-0.5,7.7-2.1C139,122.6,140.4,121.8,141.8,121z"/>
					<path class="st13" d="M149.6,55.9c3.3,1.9,6.1,5,8.1,7.6c0.3,0.4,0.6,0.7,0.8,1.1c0-0.3,0.1-0.6,0.1-0.8c0.2-1,0.3-2,0.5-3
						c0.2-0.8,0.1-1.3-0.7-1.8c-2.6-1.8-5.2-3.4-8.1-4.7c-7.4-3.3-15-4.5-22.7-4.2c-0.1,0.2-0.1,0.4-0.1,0.6
						C135.8,50.1,143.8,52.5,149.6,55.9z"/>
					<path class="st13" d="M168.7,82.3c0.5,0.9,0.3,1.6-0.5,2.5c-0.1-0.9,0.1-1.7-0.8-2.1c-0.5-0.2-1-0.2-1.5,0
						c-0.7,0.3-1,0.5-0.4,1.3c1.1,1.3,0.8,2.8-0.5,3.4c1.3-0.1,2.6-0.7,3.7-1.5c0-0.3,0.1-0.6,0.3-0.9c0.6-0.9,1.1-1.7,1.4-2.7
						c0.2-0.7,0.3-1.4,0.2-2.2c-0.3-1.7-1.7-2.4-3.2-1.5c-1,0.6-1.7,1.5-2.2,2.7C166.7,81,167.9,81.1,168.7,82.3z"/>
				</g>
				<path class="st12" d="M188.4,200.3c-1.5,1.1-6.4,1.8-12.9,1.6c0.5,8.7,0,17.5-1.8,26.3c3.8-0.9,7.4-1.7,11-2.5
					c0.6-0.1,0.8-0.5,1-1c0.7-1.8,1.4-3.6,1.6-5.5C188.2,212.9,188.4,206.6,188.4,200.3L188.4,200.3z M179.9,222.9
					c1.3-1,3.8-2,5.3-2.1C183.5,222.2,181.8,222.4,179.9,222.9L179.9,222.9z M176,225.6c2.7-1,5.5-2,8.2-2.9
					c0.3-0.1,0.6-0.2,0.8,0.1c0.2,0.4-0.1,0.6-0.3,0.8c-0.9,0.8-2,1.1-3.2,1.4c-1.8,0.4-3.5,0.7-5.3,1
					C176.1,225.9,176,225.8,176,225.6z"/>
			</g>
			<g>
				<path class="st26" d="M123.3,138.2c-9.1,2.5-15.8,8.6-23.1,13.9c1,0.2,1.7-0.1,2.5-0.2c4.9-0.8,9.8-1.7,13.2-5.8
					c0.9-1,2-1.9,3-2.9C120.4,141.6,122,140.1,123.3,138.2z"/>
				<path class="st26" d="M129.2,140.1c1.6,4.3,4.5,7.6,8.8,9.4c3.1,1.3,6.2,2.4,9.1,4.1c-1.8-2.2-3.5-4.5-5.3-6.6
					c-3.2-3.6-6.7-7-11.2-9c-0.4-0.2-0.8-0.6-1.2-0.2c-0.4,0.4-0.5,1-0.5,1.5C129,139.6,129.1,139.9,129.2,140.1z"/>
				<path class="st25" d="M21,128.3c-2.3-1.5-8.1-4.6-7.7-8.1c3.9,3.5,3.7,3.5,8.8,6c0.6,0.4,1.3,1.1,0.9,1.7
					C22.5,128.6,21.7,128.8,21,128.3z"/>
			</g>
		</g>
		<path class="st25" d="M105.2,163.4c4.4-1.3,4-1,7.3-3.4l-0.3,1.1C110.9,164.2,107.8,163.8,105.2,163.4z"/>
		<path class="st25" d="M99.7,194.1c4.4-1.3,4-1,7.3-3.4l-0.3,1.1C105.4,194.9,102.3,194.5,99.7,194.1z"/>
		<path class="st25" d="M97.6,229.2c4.4-1.3,4-1,7.3-3.4l-0.3,1.1C103.3,230,100.2,229.6,97.6,229.2z"/>
	</g>
</g>
</svg>
